<svg width="75" height="75" viewBox="0 0 75 75" fill="none" xmlns="http://www.w3.org/2000/svg">
<path d="M12.7796 20.0312C12.7796 18.1664 13.5161 16.378 14.827 15.0594C16.1379 13.7408 17.9158 13 19.7697 13H57.0504C58.9043 13 60.6823 13.7408 61.9932 15.0594C63.3041 16.378 64.0406 18.1664 64.0406 20.0312V43.4688C64.0406 45.3336 63.3041 47.122 61.9932 48.4406C60.6823 49.7592 58.9043 50.5 57.0504 50.5H38.4101V45.8125H57.0504C57.6684 45.8125 58.2611 45.5656 58.698 45.126C59.135 44.6865 59.3805 44.0904 59.3805 43.4688V20.0312C59.3805 19.4096 59.135 18.8135 58.698 18.374C58.2611 17.9344 57.6684 17.6875 57.0504 17.6875H19.7697C19.1518 17.6875 18.5591 17.9344 18.1221 18.374C17.6852 18.8135 17.4397 19.4096 17.4397 20.0312H15.1097C14.3035 20.0312 13.5252 20.1344 12.7796 20.3266V20.0312ZM66.3706 59.875H38.4101V55.1875H66.3706C66.9886 55.1875 67.5812 55.4344 68.0182 55.874C68.4552 56.3135 68.7007 56.9096 68.7007 57.5312C68.7007 58.1529 68.4552 58.749 68.0182 59.1885C67.5812 59.6281 66.9886 59.875 66.3706 59.875ZM19.7697 59.875C20.3877 59.875 20.9804 59.6281 21.4173 59.1885C21.8543 58.749 22.0998 58.1529 22.0998 57.5312C22.0998 56.9096 21.8543 56.3135 21.4173 55.874C20.9804 55.4344 20.3877 55.1875 19.7697 55.1875C19.1518 55.1875 18.5591 55.4344 18.1221 55.874C17.6852 56.3135 17.4397 56.9096 17.4397 57.5312C17.4397 58.1529 17.6852 58.749 18.1221 59.1885C18.5591 59.6281 19.1518 59.875 19.7697 59.875ZM5.78947 31.75C5.78947 29.8852 6.52593 28.0968 7.83684 26.7782C9.14774 25.4595 10.9257 24.7188 12.7796 24.7188H26.7599C28.6138 24.7188 30.3917 25.4595 31.7026 26.7782C33.0135 28.0968 33.75 29.8852 33.75 31.75V59.875C33.75 61.7398 33.0135 63.5282 31.7026 64.8468C30.3917 66.1655 28.6138 66.9062 26.7599 66.9062H12.7796C10.9257 66.9062 9.14774 66.1655 7.83684 64.8468C6.52593 63.5282 5.78947 61.7398 5.78947 59.875V31.75ZM12.7796 29.4062C12.1616 29.4062 11.569 29.6532 11.132 30.0927C10.695 30.5323 10.4496 31.1284 10.4496 31.75V59.875C10.4496 60.4966 10.695 61.0927 11.132 61.5323C11.569 61.9718 12.1616 62.2188 12.7796 62.2188H26.7599C27.3778 62.2188 27.9705 61.9718 28.4075 61.5323C28.8444 61.0927 29.0899 60.4966 29.0899 59.875V31.75C29.0899 31.1284 28.8444 30.5323 28.4075 30.0927C27.9705 29.6532 27.3778 29.4062 26.7599 29.4062H12.7796Z" fill="#A93B9E"/>
</svg>
