<svg width="1440" height="617" viewBox="0 0 1440 617" fill="none" xmlns="http://www.w3.org/2000/svg">
<path d="M365.188 132.512C226.463 149.643 53.5 50 -18 0L1452.22 0.000143118C1426.34 14.1806 1386.23 63.7507 1432.81 148.587C1479.4 233.423 1476.81 439.27 1391.4 489.535C1306 539.801 1299.68 469.037 1049.78 582.633C784.426 703.248 654 477 617.5 332.5C608.5 197.5 507 115 365.188 132.512Z" fill="#A09ADB" fill-opacity="0.85"/>
<path d="M1310.52 137.541L1175.81 137.629L1173.24 268.184L1307.95 268.095L1310.52 137.541Z" fill="#CE8DCB"/>
<path d="M1213.57 449.868L862.111 450.1C857.684 450.103 854.099 446.598 854.184 442.29L858.602 218.15C858.686 213.869 862.383 210.333 866.838 210.33L1218.32 210.098C1222.75 210.095 1226.34 213.6 1226.25 217.907L1221.83 442.073C1221.72 446.355 1218.02 449.865 1213.57 449.868Z" fill="#FEFEFE"/>
<path d="M807.414 309.192L807.899 284.442C807.899 284.442 797.68 287.022 796.617 277.941C795.553 268.86 804.997 268.133 806.701 268.801C808.404 269.469 811.596 271.036 811.596 271.036C811.596 271.036 816.5 267.431 818.391 263.931C820.282 260.431 821.462 252.789 821.462 252.789C821.462 252.789 828.042 259.345 833.797 259.496C839.578 259.646 843.474 259.001 843.474 259.001L843.667 261.239C843.667 261.239 848.39 264.194 848.156 270.729C847.923 277.264 845.83 280.25 844.072 280.997L843.637 291.108C843.637 291.108 842.479 298.981 834.205 299.295L835.264 309.972L829.143 331.2L807.414 309.192Z" fill="#FEFEFE"/>
<path d="M801.181 317.661C801.181 317.661 781.003 320.97 772.002 332.072C763.001 343.174 753.711 355.487 747.208 371.788C740.705 388.089 741.01 387.419 738.278 395.428C735.547 403.437 732.862 418.551 732.277 426.713C731.665 434.875 734.079 448.441 745.184 454.484C756.289 460.527 762.358 460.883 762.358 460.883C762.358 460.883 762.08 470.975 761.898 474.863C761.715 478.777 761.901 484.132 761.901 484.132L881.361 484.053C881.361 484.053 878.172 470.796 877.635 465.699C877.099 460.602 876.406 448.605 876.406 448.605L866.103 448.998C866.103 448.998 853.345 444.707 853.163 435.026C852.982 425.346 853.735 405.934 853.735 405.934L858.795 400.961C858.795 400.961 856.083 391.798 847.569 383.539C839.054 375.306 838.379 374.534 838.379 374.534C838.379 374.534 845.617 362.661 847.218 359.519C848.82 356.351 850.192 349.991 854.631 350.915L855.088 322.285L841.934 317.866L801.181 317.661Z" fill="#3E487F"/>
<path d="M807.987 309.868L800.785 317.873L816.058 351.793L818.974 348.421L828.585 376.404L833.327 372.773L837.477 375.06L841.561 368.652L839.709 345.964L840.583 347.173L841.285 318.052L835.206 309.13L807.987 309.868Z" fill="#FEFEFE"/>
<path d="M1321.85 309.351C1321.85 309.351 1305.4 310.135 1301.2 295.189C1296.99 280.243 1304.76 273.975 1308.06 272.555C1311.39 271.161 1314.5 264.999 1315.87 262.704C1317.25 260.409 1320.62 254.453 1327.93 253.675C1335.22 252.897 1340.81 254.388 1343.59 257.788C1343.59 257.788 1351.19 255.928 1356.6 258.63C1362 261.333 1367.05 264.861 1370.25 272.849C1370.25 272.849 1372.1 278.982 1371.11 283.364C1370.11 287.746 1368.52 290.17 1369.98 293.262C1371.46 296.354 1372.84 297.925 1370.49 301.071C1368.14 304.217 1359.79 309.069 1354.59 309.33L1321.85 309.351Z" fill="#A5AEDF"/>
<path d="M1296.2 341.413C1296.2 341.413 1302.75 332.78 1312.12 329.58C1321.48 326.38 1332.38 323.849 1336.63 323.64L1360.35 323.238C1360.35 323.238 1375.73 322.584 1382.15 325.542C1388.61 328.525 1394.15 329.217 1402.1 346.597C1402.1 346.597 1410.74 362.689 1412.77 367.272C1414.78 371.856 1422.11 389.777 1423.37 399.048C1424.62 408.32 1427.54 424.827 1417.9 439.154C1417.9 439.154 1411.82 448.044 1408.38 448.742L1407.56 485.11L1287.13 485.189C1287.13 485.189 1291.26 476.275 1292.37 466.075C1293.5 455.874 1293.92 450.337 1293.92 450.337C1293.92 450.337 1277.56 451.12 1269.28 437.32C1269.28 437.32 1260.59 426.071 1258.98 418.886C1257.37 411.727 1255.76 408.56 1255.76 408.56L1296.2 341.413Z" fill="#11194E"/>
<path d="M1316.04 281.79C1316.04 281.79 1318.97 297.992 1320.23 303.136C1321.5 308.279 1324.37 316.765 1333.01 315.267L1333.55 315.987L1335.86 325.863C1335.86 325.863 1333.32 342.325 1337.93 342.785C1342.55 343.245 1355.31 329.142 1358.1 325.231L1351.57 298.331C1351.57 298.331 1360.28 296.191 1358.47 288.99C1358.47 288.99 1357.33 282.587 1348.46 284.933C1348.46 284.933 1343.72 282.235 1342.44 276.089C1341.14 269.943 1340.51 267.165 1340.51 267.165C1340.51 267.165 1336.19 272.749 1329.23 274.22C1322.3 275.665 1316.87 279.784 1316.04 281.79Z" fill="#FEFEFE"/>
<path d="M1329.01 369.494L1323.86 375.602L1322.38 371.147C1322.38 371.173 1327.67 368.671 1329.01 369.494Z" fill="#FEFEFE"/>
<path d="M1339.45 369.959L1331.68 378.72L1325.9 380.346L1333.56 403.211C1333.56 403.211 1339.41 402.821 1341.17 402.459C1341.17 402.459 1345.68 405.856 1348.69 412.138C1348.69 412.138 1354.81 408.786 1359.04 404.868C1363.26 400.951 1368.68 394.303 1368.68 394.303C1368.68 394.303 1360.39 383.234 1356.27 379.09C1352.13 374.921 1349.09 371.446 1339.45 369.959Z" fill="#FEFEFE"/>
<path d="M1252.58 368.187L1255.89 377.477C1255.89 377.477 1264.27 378.785 1268.21 378.37C1272.14 377.956 1277.66 378.724 1277.11 382.792C1276.55 386.86 1275.17 388.431 1275.17 388.431C1275.17 388.431 1278.8 390.874 1278.36 393.448C1277.91 395.997 1276.46 398.263 1276.46 398.263C1276.46 398.263 1278.57 398.803 1278.73 401.608C1278.88 404.414 1277.59 406.629 1274.02 407.815C1270.44 409.002 1261.07 411.016 1253.43 408.318C1245.79 405.62 1244.06 391.309 1243.71 386.263C1243.36 381.192 1245.71 372.104 1252.58 368.187Z" fill="#FEFEFE"/>
<path d="M1052.96 291.615C1052.96 291.615 1049.03 287.446 1041.61 286.679C1034.16 285.911 1033.82 287.25 1033.82 287.25C1033.82 287.25 1030 285.502 1027.56 286.688C1025.12 287.874 1025.58 291.376 1025.58 291.376C1025.58 291.376 1022.01 293.464 1023.69 299.978C1023.69 299.978 1023.17 306.158 1027.23 311.743C1031.29 317.328 1032.95 319.181 1034.07 321.498C1035.19 323.815 1036.28 327.96 1036.28 327.96C1036.28 327.96 1044.81 323.937 1050.76 323.753C1056.71 323.569 1062.96 324.312 1062.96 324.312C1062.96 324.312 1061.26 316.562 1061.31 315.12C1061.34 313.704 1061.26 308.425 1060.63 306.391C1060.04 304.357 1058.08 299.955 1058.08 299.955L1045.24 299.243L1037.59 291.342L1052.96 291.615Z" fill="#FEFEFE"/>
<path d="M1143.85 326.681C1143.81 327.094 1143.63 329.517 1143.63 329.517L1147.44 329.386L1143.85 326.681Z" fill="#FEFEFE"/>
<path d="M1155.94 303.391C1155.94 303.391 1161.86 307.198 1165.88 302.381C1169.91 297.564 1166.79 292.88 1164.87 291.851C1162.95 290.823 1158.57 289.564 1155.39 292.115C1155.39 292.115 1148.81 290.935 1146.03 283.702C1143.26 276.444 1143.12 269.699 1143.12 269.699C1143.12 269.699 1138.31 270.217 1134.64 278.818L1132.17 292.465C1132.17 292.465 1125.11 293.757 1124.54 295.894C1123.96 298.032 1129 302.302 1129 302.302C1129 302.302 1126.25 316.49 1139.93 317.511C1139.93 317.511 1142.77 312.051 1146.72 310.503C1150.68 308.956 1154.12 308.13 1155.1 307.151C1156.07 306.146 1157.28 305.244 1155.94 303.391Z" fill="#FEFEFE"/>
<path d="M1323.93 375.657L1337.86 359.966L1343.66 364.778L1331.28 378.717L1325.99 380.214L1323.93 375.657Z" fill="#DBD8FF"/>
<path d="M1337.85 360.014L1340.13 357.437L1345.82 361.787L1343.67 364.391L1337.85 360.014Z" fill="#FEFEFE"/>
<path d="M1256.07 376.963L1245.6 345.623L1308.39 345.582L1337.86 434.065L1275.47 434.234L1256.07 376.963Z" fill="#FEFEFE"/>
<path d="M1250.67 344.922L1249.69 341.986L1312.03 341.765L1342.16 430.633L1336.81 430.637L1308.39 345.605L1250.67 344.922Z" fill="#A93B9E"/>
<path d="M1156.97 304.32C1156.97 304.32 1156.61 307.615 1152.84 308.132C1149.07 308.649 1141.84 312.489 1140.51 316.942C1139.2 321.396 1141.02 328.627 1154.11 330.986C1167.2 333.345 1176.03 331.563 1178.87 330.198C1181.7 328.832 1187.97 326.305 1187.41 320.18C1186.81 314.055 1180.89 310.79 1179.72 309.787C1178.54 308.81 1178.93 306.597 1179.48 304.306C1180 302.015 1184.55 287.393 1184.74 285.952C1184.93 284.51 1185.94 277.612 1182.25 272.467C1178.56 267.348 1168.7 265.012 1168.7 265.012C1168.7 265.012 1158.84 261.724 1152.26 261.934C1145.69 262.145 1138.85 262.304 1136.28 266.5C1133.71 270.697 1131.3 274.714 1134.22 281.301C1134.22 281.301 1134.9 273.167 1143.27 269.404C1143.27 269.404 1144.24 282.143 1147.24 285.77C1150.24 289.397 1152.26 291.892 1155.14 292.071C1155.14 292.071 1157.3 290.036 1160.21 290.24C1163.12 290.444 1167.09 292.114 1168.05 297.158C1168.05 297.158 1167.25 304.082 1162.89 304.805C1158.56 305.529 1156.97 304.32 1156.97 304.32Z" fill="#CE8DCB"/>
<path d="M1148.2 329.065C1148.2 329.065 1134.64 330.723 1129.45 336.268C1124.25 341.812 1119.76 348.026 1116.87 354.316C1113.98 360.606 1109.73 370.763 1108.38 373.109C1107.03 375.43 1103.77 382.906 1096.09 381.725C1088.39 380.545 1087.79 374.747 1086.64 371.088C1085.48 367.429 1072.89 327.955 1072.89 327.955C1072.89 327.955 1064.68 321.698 1050.85 323.82C1037.01 325.942 1030.82 334.915 1030.82 334.915C1030.82 334.915 1034.14 356.948 1036.33 365.864C1038.5 374.779 1042.59 390.137 1047.18 399.205C1051.74 408.274 1062.13 424.065 1079.27 427.172C1096.41 430.28 1107.93 427.154 1112.27 425.45L1112.8 425.681L1109.4 484.779L1206.59 484.869L1205.63 435.259C1205.63 435.259 1215.76 441.386 1223.87 436.638C1231.97 431.891 1232.38 424.726 1232.2 420.422C1231.99 416.093 1230.55 405.656 1228.49 399.446C1226.42 393.237 1222.61 381.23 1215.46 368.709C1208.3 356.214 1199.4 343.077 1199.4 343.077C1199.4 343.077 1195.17 336.25 1188.34 332.621C1181.52 328.991 1180.43 329.997 1180.43 329.997C1180.43 329.997 1172.77 332.476 1163.73 331.812C1154.63 331.148 1148.2 329.065 1148.2 329.065Z" fill="#DBD8FF"/>
<path d="M1037.41 291.396L1065.71 292.906L1065.11 300.421L1045.13 299.32L1037.41 291.396Z" fill="#1A1A1A"/>
<path d="M1065.79 292.99L1065.22 300.434L1068.92 300.635L1069.5 293.191L1065.79 292.99Z" fill="#FEFEFE"/>
<path d="M1024.25 290.262L1014.91 294.005L1022.16 297.737C1022.19 297.711 1022.76 291.552 1024.25 290.262Z" fill="#FEFEFE"/>
<path d="M1095.5 504.328L1129.72 500.951L1102.55 489.216L1073.72 491.497L1078.33 494.537L1069.94 494.282L1042.43 506.027L1076.4 509.385L1090.55 501.497L1095.5 504.328Z" fill="#FEFEFE"/>
<path d="M1155.72 376.041C1155.72 376.041 1149.29 419.608 1112.37 435.509L1112.41 425.448C1112.41 425.448 1123.33 423.125 1135.26 410.714C1147.22 398.278 1155.72 376.041 1155.72 376.041Z" fill="#1A1A1A"/>
<path d="M1278.66 404.006C1278.66 404.006 1276.79 412.461 1268.44 413.395L1266.57 409.401C1266.57 409.375 1274.61 409.782 1278.66 404.006Z" fill="#B5B5B5"/>
<path d="M1241.24 283.459L1208.6 283.48L1207.98 315.108L1240.62 315.086L1241.24 283.459Z" fill="#FEFEFE"/>
<path d="M1224.82 290.56C1226.14 290.56 1227.23 289.521 1227.25 288.241C1227.28 286.961 1226.23 285.924 1224.91 285.924C1223.59 285.925 1222.49 286.964 1222.47 288.244C1222.44 289.524 1223.49 290.561 1224.82 290.56Z" fill="#CE8DCB"/>
<path d="M1088.35 242.048C1088.33 242.976 1087.54 243.723 1086.59 243.724C1085.63 243.724 1084.87 242.978 1084.89 242.051C1084.91 241.123 1085.7 240.376 1086.65 240.375C1087.58 240.375 1088.36 241.121 1088.35 242.048Z" fill="#CE8DCB"/>
<path d="M1205.52 158.117L1180.3 158.134L1179.26 210.951L1204.49 210.934L1205.52 158.117Z" fill="#11194E"/>
<path d="M1222.78 186.653L1222.21 216.101L1226.07 221.859L1226.54 233.92L1246.98 233.907L1247.91 186.637L1222.78 186.653Z" fill="white"/>
<path d="M1290.42 203.962L1265.29 203.978L1264.7 234.018L1289.83 234.001L1290.42 203.962Z" fill="white"/>
<path d="M838.41 375.131C838.41 375.131 843.731 367.012 845.884 363.094C848.063 359.176 849.586 354.77 850.466 353.352C851.344 351.96 852.757 350.491 854.98 351.108C857.202 351.75 857.511 353.605 857.331 356.027C857.15 358.449 854.698 364.067 854.878 365.716C855.059 367.365 855.673 369.941 859.177 369.011C862.681 368.081 866.872 364.678 868.767 363.027C870.662 361.377 878.17 354.364 878.17 354.364C878.17 354.364 880.711 352.327 883.526 353.974C886.314 355.622 885.133 358.817 885.133 358.817C885.133 358.817 887.312 358.944 888.457 360.283C889.628 361.622 890.085 364.07 889.087 364.766C889.087 364.766 889.015 365.719 890.249 366.543C891.483 367.367 891.575 369.479 890.688 371.258C889.802 373.036 883.404 380.434 877.434 384.973C871.491 389.511 861.821 395.546 857.834 396.657C857.834 396.657 852.193 388.571 849.048 384.811C845.903 381.052 838.41 375.131 838.41 375.131Z" fill="#FEFEFE"/>
<path d="M807.557 284.995L807.178 289.423L803.791 285.024L807.557 284.995Z" fill="#1A1A1A"/>
<path d="M810.579 271.454C810.579 271.454 817.098 266.858 818.964 261.543C820.803 256.202 821.029 252.849 821.029 252.849C821.029 252.849 824.986 259.166 834.608 259.598C844.229 260.03 843.427 258.767 843.427 258.767L843.416 260.676L845.21 261.706C845.21 261.706 846.158 256.908 845.118 252.859C844.077 248.809 840.94 245.561 835.788 243.011C830.637 240.461 824.125 240.594 822.889 241.033C821.654 241.447 815.809 242.947 814.798 244.186L813.932 244.805C813.932 244.805 806.935 245.197 803.837 248.088C800.739 250.953 798.611 253.354 797.931 258.1C797.224 262.821 797.169 268.316 798.642 270.739C798.642 270.739 800.654 268.829 804.202 268.827C807.752 268.721 810.579 271.454 810.579 271.454Z" fill="#DBD8FF"/>
<path d="M824.435 285.719C824.435 285.719 827.71 287.109 828.629 289.144C829.548 291.18 828.924 293.113 828.924 293.113C828.924 293.113 831.892 293.859 834.552 292.697C837.212 291.51 837.418 289.164 836.586 288.159C835.753 287.155 833.554 287.929 832.328 287.982C831.101 288.06 829.584 287.984 829.154 286.85C828.723 285.742 827.703 283.397 825.941 283.604C824.205 283.837 824.435 285.719 824.435 285.719Z" fill="#1A1A1A"/>
<path d="M822.146 344.061L828.22 352.517L826.643 367.559L828.934 376.403L834.4 373.031L837.769 375.06L841.826 368.655L840.827 360.736L836.046 351.792L837.053 341.866L829.856 331.817L822.146 344.061Z" fill="#DBD8FF"/>
<path d="M1335.85 323.833L1336.31 325.74C1336.31 325.74 1333.37 342.47 1338.14 342.596C1342.93 342.722 1351.42 333.54 1352.95 331.915C1354.47 330.29 1358.84 325.132 1358.84 325.132L1358.2 323.509L1362.27 323.66C1362.27 323.66 1362.38 332.012 1359.63 340.185C1356.89 348.358 1353.95 354.159 1349.21 354.24C1344.46 354.294 1341.35 351.177 1340.19 349.4C1339.03 347.622 1338.46 343.833 1338.46 343.833C1338.46 343.833 1330.09 351.107 1326.39 350.801C1322.69 350.494 1319.99 347.325 1322.47 341.627C1324.95 335.929 1332.56 324.505 1332.56 324.505L1335.85 323.833Z" fill="#A93B9E"/>
<path d="M878.285 216.056L937.391 216.017L938.518 158.737C938.518 158.737 914.285 157.156 895.272 176.64C876.285 196.123 878.285 216.056 878.285 216.056Z" fill="#11194E"/>
<path d="M955.577 172.637L954.437 230.587L894.64 230.626C894.01 262.64 920.262 288.558 953.296 288.537C986.331 288.515 1013.6 262.561 1014.23 230.547C1014.86 198.559 988.585 172.615 955.577 172.637Z" fill="#A93B9E"/>
<path d="M1090.5 501.41L1079.41 494.99L1069.92 494.219L1042.43 505.925L1076.37 509.272L1090.5 501.41Z" fill="#CE8DCB"/>
<path d="M835.855 243.043C833.466 241.86 830.8 241.27 828.499 240.988C828.392 241.04 844.821 249.524 839.637 259.669C842.741 259.564 843.36 259.126 843.444 258.894L843.436 260.645L845.218 261.673C845.218 261.673 846.161 256.885 845.127 252.844C844.092 248.855 840.974 245.588 835.855 243.043Z" fill="white"/>
<path d="M821.018 252.465C821.018 252.465 814.377 267.598 808.009 268.838L810.978 271.126C812.32 270.096 817.341 266.078 818.938 261.498C820.76 256.17 820.985 252.825 820.985 252.825C820.985 252.825 821.035 252.928 821.165 253.083L821.018 252.465Z" fill="white"/>
<path d="M1142.8 269.404C1142.8 269.404 1143.77 282.142 1146.77 285.768C1149.77 289.395 1151.78 291.89 1154.66 292.068C1144.57 285.667 1145.96 264.846 1146.2 262.221C1141.66 262.585 1137.62 263.514 1135.79 266.5C1133.22 270.697 1130.81 274.713 1133.73 281.299C1133.75 281.325 1134.44 273.166 1142.8 269.404Z" fill="white"/>
<path d="M1151.38 330.241C1150.27 329.933 1149.19 328.698 1148.6 327.824C1147.87 326.795 1147.42 325.586 1147.15 324.377C1146.57 321.649 1146.69 318.33 1147.99 315.755C1148.67 314.391 1149.76 313.181 1151.04 312.305C1152.25 311.481 1153.61 310.914 1154.89 310.244C1155.91 309.729 1156.87 309.111 1157.63 308.261C1158.36 307.463 1159.22 306.69 1159.61 305.66C1159.61 305.66 1159.09 305.301 1158.26 304.709C1157.41 304.504 1157.02 304.221 1157.02 304.221C1157.02 304.221 1156.67 307.515 1152.9 308.032C1149.13 308.549 1141.91 312.388 1140.58 316.841C1139.39 320.959 1140.88 327.417 1151.38 330.241Z" fill="white"/>
<path d="M827.291 336.306L832.266 342.422L831.764 352.088L841.25 369.383L841.307 362.416L836.054 351.802L837.605 341.878L829.85 332.294L827.291 336.306Z" fill="white"/>
<path d="M1064.31 301.088C1064.29 301.088 1045.48 300.055 1045.48 300.055C1045.12 300.03 1044.86 299.719 1044.9 299.33C1044.96 298.966 1045.28 298.68 1045.64 298.68C1045.67 298.68 1063.77 299.662 1063.77 299.662L1064.7 293.511L1038 292.05C1037.64 292.025 1037.38 291.714 1037.42 291.325C1037.48 290.961 1037.79 290.675 1038.16 290.675C1038.18 290.675 1065.59 292.186 1065.59 292.186C1065.95 292.211 1066.21 292.522 1066.17 292.911L1065.03 300.412C1065.02 300.801 1064.68 301.087 1064.31 301.088Z" fill="black"/>
<path d="M1068.44 301.306C1068.41 301.306 1065.08 301.105 1065.08 301.105C1064.76 301.08 1064.52 300.772 1064.56 300.386C1064.61 300.025 1064.87 299.716 1065.27 299.741L1067.97 299.891L1068.79 293.79L1066.09 293.615C1065.76 293.589 1065.53 293.281 1065.56 292.895C1065.62 292.534 1065.9 292.251 1066.23 292.25C1066.25 292.25 1069.59 292.451 1069.59 292.451C1069.91 292.476 1070.15 292.784 1070.11 293.17L1069.11 300.61C1069.08 301.022 1068.77 301.305 1068.44 301.306Z" fill="black"/>
<path d="M1022.27 298.715C1022.17 298.716 1022.07 298.69 1021.98 298.639L1014.61 294.447C1014.4 294.318 1014.29 294.086 1014.32 293.803C1014.37 293.545 1014.54 293.312 1014.8 293.209L1024.08 289.583C1024.44 289.479 1024.8 289.633 1024.9 289.968C1024.99 290.303 1024.8 290.716 1024.44 290.846L1016.53 293.928L1022.69 297.425C1023 297.605 1023.08 298.018 1022.88 298.328C1022.73 298.586 1022.49 298.715 1022.27 298.715Z" fill="black"/>
<path d="M1040.21 308.623C1040.08 308.623 1039.96 308.597 1039.86 308.52C1027.87 300.362 1025.54 294.279 1025.24 291.391C1025.07 289.715 1025.46 288.27 1026.37 287.185C1029.35 283.673 1034.39 287.276 1034.62 287.431C1034.84 287.662 1044.56 299.899 1050.34 301.902C1050.69 302.03 1050.85 302.417 1050.7 302.752C1050.56 303.114 1050.18 303.295 1049.83 303.166C1043.9 301.112 1034.63 289.597 1033.71 288.489C1033.16 288.129 1029.37 285.659 1027.36 288.009C1026.7 288.758 1026.43 289.867 1026.57 291.157C1026.78 293.323 1028.62 299.226 1040.64 307.384C1040.94 307.59 1040.99 308.002 1040.8 308.312C1040.66 308.519 1040.44 308.622 1040.21 308.623Z" fill="black"/>
<path d="M1034.67 315.457C1034.52 315.457 1034.38 315.406 1034.26 315.303C1033.79 314.866 1022.75 304.77 1022.81 295.97C1022.81 293.475 1023.74 291.312 1025.52 289.534C1025.78 289.276 1026.2 289.275 1026.44 289.532C1026.67 289.789 1026.65 290.227 1026.39 290.484C1024.87 292.005 1024.14 293.781 1024.12 295.917C1024.07 304.125 1035.06 314.17 1035.15 314.273C1035.41 314.504 1035.44 314.941 1035.18 315.225C1035.05 315.379 1034.87 315.457 1034.67 315.457Z" fill="black"/>
<path d="M1053.2 292.975C1053.02 292.975 1052.84 292.898 1052.71 292.768C1052.69 292.716 1048.98 288.563 1044.92 287.712C1040.79 286.834 1032.99 288.094 1032.91 288.12C1032.53 288.224 1032.18 287.939 1032.14 287.575C1032.11 287.211 1032.37 286.847 1032.74 286.794C1033.07 286.742 1040.89 285.457 1045.29 286.412C1049.76 287.367 1053.62 291.701 1053.77 291.883C1054.02 292.168 1053.97 292.584 1053.69 292.845C1053.52 292.897 1053.36 292.975 1053.2 292.975Z" fill="black"/>
<path d="M1062.48 324.993C1062.22 324.993 1062 324.814 1061.92 324.531C1061.87 324.274 1060.4 317.953 1060.83 313.686C1061.55 306.72 1058.51 300.401 1058.49 300.35C1058.35 300.042 1058.46 299.63 1058.74 299.424C1059.03 299.218 1059.39 299.321 1059.56 299.654C1059.68 299.937 1062.78 306.384 1062.04 313.762C1061.65 317.772 1063.1 324.041 1063.11 324.118C1063.19 324.478 1063.01 324.838 1062.68 324.967C1062.59 324.993 1062.55 324.993 1062.48 324.993Z" fill="black"/>
<path d="M1035.8 328.222C1035.55 328.222 1035.32 328.068 1035.23 327.811C1034.34 325.42 1032.48 320.56 1031.65 319.326C1031.54 319.172 1031.35 318.915 1031.1 318.555C1028.84 315.471 1021.98 306.091 1024.16 299.81C1024.27 299.45 1024.65 299.269 1024.99 299.371C1025.33 299.474 1025.51 299.859 1025.37 300.22C1023.45 305.806 1029.99 314.775 1032.13 317.705C1032.38 318.064 1032.59 318.347 1032.7 318.501C1033.8 320.146 1036.31 326.96 1036.42 327.243C1036.55 327.578 1036.38 327.989 1036.03 328.119C1035.97 328.222 1035.9 328.222 1035.8 328.222Z" fill="black"/>
<path d="M1330.4 379.761C1330.25 379.761 1330.11 379.71 1329.99 379.607C1329.74 379.375 1329.75 378.937 1330 378.653L1342.4 364.843L1338.25 360.907L1324.62 376.085C1324.37 376.369 1323.94 376.395 1323.69 376.163C1323.44 375.932 1323.46 375.494 1323.7 375.21L1337.81 359.49C1338.08 359.206 1338.48 359.179 1338.73 359.411L1343.79 364.223C1344.05 364.454 1344.03 364.892 1343.78 365.176L1330.92 379.502C1330.78 379.683 1330.57 379.761 1330.4 379.761Z" fill="black"/>
<path d="M1343.22 365.5C1343.07 365.5 1342.92 365.449 1342.81 365.346C1342.55 365.115 1342.57 364.676 1342.82 364.392L1344.86 362.12L1340.69 358.183L1338.65 360.455C1338.4 360.739 1337.98 360.765 1337.72 360.534C1337.47 360.302 1337.49 359.864 1337.73 359.58L1340.25 356.791C1340.5 356.507 1340.92 356.481 1341.18 356.712L1346.26 361.525C1346.51 361.757 1346.5 362.195 1346.25 362.479L1343.73 365.267C1343.6 365.422 1343.39 365.5 1343.22 365.5Z" fill="black"/>
<path d="M1328.82 390.466C1328.51 390.466 1328.25 390.259 1328.19 389.949C1328.11 389.586 1328.36 389.223 1328.74 389.119C1330.87 388.597 1332.64 388.051 1335.06 387.218C1335.41 387.088 1335.79 387.269 1335.91 387.631C1336.02 387.994 1335.81 388.383 1335.43 388.513C1332.99 389.371 1331.14 389.918 1328.98 390.466C1328.95 390.466 1328.9 390.466 1328.82 390.466Z" fill="black"/>
<path d="M1325.52 381.028C1325.18 381.028 1324.9 380.795 1324.86 380.458C1324.83 380.095 1325.09 379.732 1325.49 379.679C1329.22 379.077 1333.84 378.188 1336.46 376.498C1336.79 376.29 1337.21 376.367 1337.4 376.678C1337.6 376.989 1337.5 377.404 1337.17 377.612C1334.32 379.458 1329.51 380.399 1325.62 381.028C1325.6 381.028 1325.55 381.028 1325.52 381.028Z" fill="black"/>
<path d="M1331.32 397.56C1330.98 397.561 1330.67 397.301 1330.67 396.963C1330.66 396.599 1330.94 396.26 1331.32 396.208C1335.26 395.812 1337.76 395.21 1337.79 395.21C1338.16 395.105 1338.52 395.339 1338.61 395.703C1338.69 396.067 1338.43 396.431 1338.06 396.536C1337.95 396.562 1335.45 397.164 1331.4 397.56C1331.38 397.56 1331.35 397.56 1331.32 397.56Z" fill="black"/>
<path d="M1322.31 371.864C1322.07 371.865 1321.87 371.761 1321.75 371.554C1321.58 371.243 1321.68 370.829 1322.04 370.621C1325.66 368.516 1329.65 368.225 1329.84 368.225C1330.26 368.198 1330.54 368.483 1330.54 368.846C1330.55 369.209 1330.24 369.546 1329.87 369.572C1329.82 369.572 1326.01 369.863 1322.71 371.786C1322.55 371.838 1322.44 371.864 1322.31 371.864Z" fill="black"/>
<path d="M1367.74 395.026C1367.54 395.027 1367.36 394.949 1367.21 394.769C1367.09 394.615 1355.54 378.639 1352.56 376.013C1347.46 371.481 1340.19 370.666 1340.12 370.666C1339.76 370.641 1339.49 370.306 1339.56 369.919C1339.61 369.558 1339.96 369.325 1340.34 369.325C1340.65 369.35 1348.1 370.19 1353.5 374.98C1356.58 377.709 1367.84 393.272 1368.32 393.942C1368.54 394.225 1368.46 394.664 1368.14 394.897C1368.03 394.974 1367.9 395.026 1367.74 395.026Z" fill="black"/>
<path d="M1348.79 412.752C1348.56 412.752 1348.33 412.649 1348.24 412.417C1345.47 407.384 1342.35 403.076 1341.41 403.052C1341.2 403.052 1340.73 403.13 1340.2 403.234C1338.81 403.469 1336.49 403.911 1333.92 403.786C1333.55 403.761 1333.26 403.451 1333.3 403.09C1333.35 402.728 1333.7 402.443 1334.04 402.443C1336.46 402.543 1338.62 402.152 1340.04 401.917C1340.7 401.787 1341.17 401.709 1341.51 401.708C1343.7 401.705 1347.79 408.724 1349.45 411.743C1349.61 412.053 1349.49 412.466 1349.16 412.674C1349.05 412.725 1348.92 412.751 1348.79 412.752Z" fill="black"/>
<path d="M1130.21 309.652C1129.85 309.653 1129.49 309.601 1129.09 309.499C1128.73 309.396 1128.55 309.036 1128.67 308.675C1128.79 308.313 1129.17 308.081 1129.52 308.209C1130.1 308.363 1130.44 308.363 1131.22 308.233C1132.64 308.024 1134.01 307.042 1134.83 305.623C1135.37 304.694 1135.49 303.921 1135.35 303.586C1135.24 303.328 1135.09 303.174 1134.87 303.097C1134.61 303.02 1134.33 303.046 1134.01 303.175C1133.64 303.356 1133.37 303.692 1133.01 304.053C1132.66 304.466 1132.27 304.931 1131.66 305.241C1130.37 305.913 1129.12 305.168 1128.72 304.91C1128.42 304.73 1128.32 304.318 1128.54 303.983C1128.77 303.647 1129.16 303.543 1129.48 303.749C1130.18 304.161 1130.69 304.263 1131.14 304.056C1131.45 303.875 1131.73 303.565 1132.03 303.204C1132.42 302.739 1132.86 302.249 1133.52 301.938C1134.15 301.654 1134.82 301.601 1135.4 301.807C1135.95 302.012 1136.37 302.424 1136.6 302.991C1136.94 303.79 1136.69 305.002 1135.98 306.214C1134.93 307.995 1133.19 309.235 1131.33 309.521C1130.91 309.599 1130.55 309.651 1130.21 309.652Z" fill="black"/>
<path d="M767.433 462.026C752.22 462.044 735.364 453.101 732.43 438.012C728.625 418.39 740.357 387.958 744.044 379.093C751.303 361.647 754.937 355.178 762.874 343.398C775.481 324.658 787.491 319.467 801.699 317.415C802.067 317.337 802.424 317.62 802.464 317.981C802.505 318.341 802.232 318.702 801.864 318.754C787.657 320.806 776.386 325.765 764.027 344.118C756.145 355.821 752.564 362.238 745.335 379.581C741.678 388.343 730.06 418.465 733.799 437.727C736.91 453.769 756.569 462.528 772.27 460.372C801.284 456.37 852.432 405.08 856.731 400.696C856.28 399.28 854.236 393.822 848.375 386.772C840.377 377.097 835.322 374.219 834.087 373.602C829.635 376.286 779.768 406.635 762.001 432.129C761.782 432.439 761.361 432.542 761.054 432.311C760.747 432.105 760.682 431.693 760.875 431.384C779.548 404.575 833.179 372.573 833.713 372.237C833.899 372.134 834.109 372.108 834.316 372.185C834.549 372.262 839.942 374.419 849.423 385.869C856.39 394.283 858.074 400.386 858.144 400.643C858.215 400.875 858.129 401.107 857.966 401.287C855.748 403.582 803.027 457.424 772.411 461.659C770.757 461.893 769.106 462.024 767.433 462.026Z" fill="black"/>
<path d="M830.473 293.994C829.516 293.995 828.6 293.816 827.701 293.456C825.662 292.608 824.157 290.623 823.729 288.173C823.428 286.522 823.693 285.024 824.429 284.146C825.108 283.345 825.978 282.93 826.899 283.058C828.021 283.185 828.999 284.061 829.484 285.35C830.087 287.001 830.257 287.078 830.671 287.232C831.083 287.412 831.252 287.489 832.98 286.79C834.341 286.246 835.692 286.347 836.535 287.042C837.214 287.608 837.488 288.46 837.317 289.492C837.108 290.654 836.031 291.946 834.511 292.851C833.231 293.602 831.834 293.991 830.473 293.994ZM826.5 284.375C826.122 284.375 825.75 284.582 825.412 284.97C825.046 285.384 824.799 286.416 825.048 287.809C825.411 289.873 826.622 291.497 828.297 292.191C830.843 293.27 833.058 292.209 833.885 291.717C835.166 290.941 835.862 289.959 835.965 289.391C836.066 288.849 835.953 288.436 835.601 288.153C835.084 287.741 834.205 287.717 833.314 288.079C831.299 288.883 830.823 288.858 830.047 288.524C829.295 288.215 828.92 287.906 828.219 285.946C827.895 285.095 827.272 284.477 826.624 284.4C826.576 284.375 826.525 284.375 826.5 284.375Z" fill="black"/>
<path d="M828.828 293.737C828.327 293.634 828.118 293.274 828.24 292.888C829.749 287.915 824.129 286.352 823.904 286.301C823.554 286.198 823.371 285.838 823.466 285.477C823.587 285.117 823.953 284.91 824.304 284.987C826.778 285.653 831.026 288.222 829.515 293.221C829.397 293.53 829.107 293.736 828.828 293.737Z" fill="black"/>
<path d="M776.857 415.286C776.758 415.287 776.659 415.261 776.561 415.21C776.243 415.03 776.13 414.645 776.315 414.31C789.084 389.979 793.016 358.333 793.05 358.025C793.086 357.665 793.393 357.407 793.766 357.407C794.114 357.432 794.378 357.766 794.342 358.126C794.307 358.434 790.341 390.364 777.442 414.9C777.334 415.157 777.106 415.286 776.857 415.286Z" fill="black"/>
<path d="M829.283 300.334C827.831 300.336 826.276 300.261 824.564 300.134C822.063 299.956 819.885 299.546 817.874 298.903C817.508 298.801 817.335 298.414 817.453 298.053C817.597 297.691 817.972 297.51 818.338 297.613C820.245 298.23 822.318 298.614 824.714 298.792C832.481 299.376 837.364 298.596 840.156 296.348C841.811 294.979 842.773 293.017 843.073 290.281C843.265 288.475 843.524 284.579 843.661 281.199C843.673 280.838 844 280.528 844.369 280.527C844.765 280.527 845.046 280.836 845.034 281.197C844.896 284.603 844.635 288.551 844.443 290.383C844.104 293.479 842.973 295.777 841.02 297.379C838.58 299.343 834.773 300.328 829.283 300.334Z" fill="black"/>
<path d="M843.64 261.568C843.283 261.568 843.011 261.286 842.997 260.926L842.978 259.1C842.965 258.714 843.255 258.405 843.638 258.405C844.02 258.404 844.318 258.687 844.306 259.047L844.324 260.898C844.338 261.258 844.047 261.593 843.664 261.594C843.665 261.568 843.665 261.568 843.64 261.568Z" fill="black"/>
<path d="M807.164 310.326C806.889 310.326 806.66 310.018 806.668 309.659L807.229 284.413C807.237 284.053 807.48 283.745 807.755 283.745C808.03 283.744 808.259 284.052 808.251 284.412L807.689 309.658C807.681 310.043 807.439 310.326 807.164 310.326Z" fill="black"/>
<path d="M804.185 285.697C802.245 285.699 800.299 285.057 798.715 283.797C794.931 280.812 794.43 275.273 797.596 271.43C799.125 269.573 801.286 268.411 803.682 268.125C806.051 267.838 808.389 268.48 810.229 269.946C811.431 270.898 812.36 272.134 812.891 273.55C813.011 273.885 812.841 274.298 812.496 274.427C812.124 274.582 811.736 274.402 811.616 274.067C811.156 272.882 810.379 271.801 809.356 271.004C807.797 269.769 805.823 269.204 803.822 269.464C801.795 269.699 799.979 270.706 798.67 272.279C795.996 275.503 796.393 280.218 799.614 282.739C802.349 284.9 806.205 284.844 809.055 282.676C809.351 282.444 809.795 282.495 810.022 282.778C810.248 283.061 810.182 283.499 809.886 283.732C808.165 285.048 806.151 285.694 804.185 285.697Z" fill="black"/>
<path d="M835.511 310.621C835.195 310.621 834.935 310.365 834.897 310.031L834.047 299.367C834.01 299.008 834.287 298.673 834.628 298.622C835.019 298.57 835.277 298.852 835.315 299.212L836.164 309.875C836.202 310.235 835.925 310.569 835.584 310.621C835.559 310.621 835.535 310.621 835.511 310.621Z" fill="black"/>
<path d="M810.663 272.135C810.451 272.135 810.242 272.032 810.116 271.852C809.914 271.542 810.007 271.129 810.306 270.896C820.002 264.375 820.618 252.906 820.621 252.803C820.63 252.519 820.824 252.26 821.119 252.157C821.387 252.053 821.702 252.156 821.879 252.388C822.158 252.775 829.196 261.833 843.322 258.303C843.696 258.199 844.059 258.431 844.153 258.793C844.247 259.154 843.997 259.516 843.623 259.62C831.793 262.579 824.457 256.957 821.84 254.403C821.326 257.942 819.243 266.494 811.091 272.005C810.955 272.109 810.795 272.135 810.663 272.135Z" fill="black"/>
<path d="M801.809 281.835C801.575 281.835 801.318 281.707 801.222 281.475C801.05 281.141 801.193 280.754 801.537 280.574L807.094 277.735L802.002 272.644C801.75 272.386 801.738 271.949 802.033 271.691C802.302 271.433 802.745 271.407 802.996 271.69L808.744 277.424C808.895 277.578 808.966 277.784 808.934 277.99C808.901 278.196 808.764 278.402 808.553 278.48L802.15 281.757C802.043 281.835 801.913 281.835 801.809 281.835Z" fill="black"/>
<path d="M817.976 249.443C817.793 249.443 817.586 249.366 817.46 249.211L814.138 245.197C813.911 244.914 813.951 244.502 814.247 244.244C814.543 244.012 814.96 244.037 815.213 244.32L818.535 248.334C818.762 248.617 818.722 249.03 818.426 249.288C818.292 249.391 818.133 249.442 817.976 249.443Z" fill="black"/>
<path d="M798.29 271.053C797.999 271.054 797.741 270.873 797.644 270.589C797.5 270.125 794.346 259 799.895 251.169C802.781 247.111 807.491 244.704 813.89 244.051C815.248 242.99 823.723 237.144 836.359 242.397C847.038 246.825 846.766 256.715 845.633 262.217C845.568 262.578 845.241 262.889 844.821 262.76C844.453 262.709 844.2 262.348 844.265 261.986C845.528 255.736 845.084 247.499 835.763 243.637C823.048 238.359 814.893 244.928 814.566 245.212C814.457 245.315 814.323 245.367 814.164 245.367C808.085 245.943 803.673 248.143 800.983 251.89C795.822 259.178 798.906 270.046 798.929 270.149C799.023 270.51 798.826 270.872 798.451 271.002C798.423 271.053 798.343 271.053 798.29 271.053Z" fill="black"/>
<path d="M807.383 290.299C807.253 290.299 807.097 290.248 806.969 290.171C804.696 288.422 802.907 285.487 802.831 285.384C802.632 285.075 802.75 284.663 803.071 284.456C803.391 284.276 803.807 284.352 804.007 284.661C804.032 284.687 805.747 287.493 807.816 289.088C808.096 289.319 808.161 289.731 807.915 290.041C807.779 290.221 807.593 290.299 807.383 290.299Z" fill="black"/>
<path d="M836.672 284.343C836.418 284.344 836.168 284.19 836.075 283.907C835.959 283.573 836.124 283.187 836.485 283.032C836.717 282.929 836.948 282.851 837.205 282.774C837.72 282.593 838.209 282.413 838.675 282.155C839.323 281.794 839.772 281.279 839.889 280.791C839.978 280.379 839.891 279.916 839.649 279.531C839.26 278.94 838.587 278.503 837.701 278.35C837.549 278.325 836.457 278.249 836.203 278.249C836.1 278.275 835.999 278.249 835.924 278.224C835.672 278.147 835.501 277.916 835.483 277.658C835.484 277.633 834.889 268.247 834.889 268.247L836.217 268.117L836.78 276.885C837.237 276.911 837.719 276.987 837.998 277.013C839.238 277.217 840.236 277.859 840.817 278.784C841.254 279.477 841.38 280.3 841.203 281.072C840.997 281.972 840.31 282.77 839.325 283.337C838.781 283.646 838.215 283.853 837.648 284.059C837.417 284.137 837.185 284.214 836.979 284.317C836.825 284.343 836.749 284.343 836.672 284.343Z" fill="black"/>
<path d="M1143.5 284.83C1143.31 284.83 1143.13 284.752 1143 284.623C1140.64 282.087 1137.71 283.619 1137.6 283.697C1137.25 283.879 1136.83 283.776 1136.65 283.439C1136.48 283.128 1136.6 282.714 1136.95 282.506C1138.33 281.753 1141.58 280.998 1144.07 283.663C1144.33 283.948 1144.29 284.362 1144.01 284.622C1143.85 284.777 1143.69 284.829 1143.5 284.83Z" fill="black"/>
<path d="M1138.81 288.074C1138.26 287.998 1137.89 288.229 1137.7 290.157C1137.47 292.317 1138.04 292.702 1138.51 292.676C1139.01 292.65 1139.52 292.007 1139.52 290.465C1139.55 288.896 1139.54 288.177 1138.81 288.074Z" fill="black"/>
<path d="M1160.17 305.743C1158.47 305.745 1156.89 305.232 1155.56 304.306C1155.25 304.1 1155.18 303.662 1155.43 303.353C1155.65 303.043 1156.1 302.965 1156.38 303.197C1157.48 303.968 1158.8 304.405 1160.22 304.403C1163.96 304.399 1167.1 301.432 1167.22 297.748C1167.28 295.97 1166.65 294.296 1165.41 293.035C1164.16 291.774 1162.48 291.081 1160.68 291.083C1158.32 291.086 1156.13 292.248 1154.81 294.207C1154.59 294.517 1154.17 294.62 1153.86 294.415C1153.55 294.209 1153.46 293.797 1153.68 293.487C1155.25 291.141 1157.89 289.747 1160.69 289.743C1165.22 289.764 1168.72 293.341 1168.58 297.772C1168.41 302.152 1164.63 305.738 1160.17 305.743Z" fill="black"/>
<path d="M1162.11 301.715C1161.98 301.715 1161.85 301.69 1161.75 301.613L1156.75 298.297C1156.57 298.169 1156.48 297.989 1156.46 297.757C1156.47 297.525 1156.58 297.319 1156.76 297.19L1162.02 293.424C1162.34 293.218 1162.75 293.269 1162.98 293.552C1163.2 293.861 1163.11 294.273 1162.82 294.505L1158.36 297.703L1162.57 300.504C1162.88 300.71 1162.94 301.122 1162.72 301.431C1162.53 301.612 1162.32 301.715 1162.11 301.715Z" fill="black"/>
<path d="M1143.59 330.177C1143.18 330.152 1142.91 329.843 1142.95 329.458L1143.22 326.629C1143.25 326.243 1143.51 326.012 1143.94 325.986C1144.3 326.011 1144.56 326.319 1144.53 326.705L1144.26 329.533C1144.23 329.893 1143.91 330.176 1143.59 330.177Z" fill="black"/>
<path d="M1109.92 485.103C1109.64 485.103 1109.4 484.821 1109.41 484.436C1109.59 471.492 1112.48 425.209 1112.51 424.747C1112.54 424.387 1112.78 424.13 1113.07 424.104C1113.35 424.129 1113.59 424.437 1113.56 424.797C1113.53 425.259 1110.64 471.516 1110.46 484.383C1110.47 484.794 1110.22 485.103 1109.92 485.103C1109.92 485.103 1109.94 485.103 1109.92 485.103Z" fill="black"/>
<path d="M941.489 222.894L883.746 222.98C883.387 222.981 883.096 222.672 883.115 222.311C883.135 221.95 883.46 221.64 883.819 221.639L940.894 221.554L944.015 164.273C944.035 163.912 944.36 163.602 944.719 163.601C945.079 163.601 945.37 163.91 945.35 164.271L942.191 222.248C942.172 222.609 941.848 222.893 941.489 222.894Z" fill="#151515"/>
<path d="M941.008 280.866C908.812 280.914 884.037 254.633 885.804 222.306C887.571 189.979 915.223 163.619 947.418 163.571C979.614 163.523 1004.39 189.778 1002.62 222.131C1001.72 238.552 993.929 254.365 981.23 265.468C980.934 265.727 980.524 265.702 980.283 265.418C980.042 265.135 980.09 264.723 980.387 264.464C992.788 253.62 1000.41 238.168 1001.29 222.133C1003.01 190.528 978.822 164.864 947.345 164.911C915.868 164.958 888.866 190.698 887.139 222.304C885.412 253.909 909.604 279.572 941.081 279.525C944.393 279.52 947.72 279.232 950.961 278.66C951.324 278.582 951.67 278.839 951.701 279.2C951.758 279.561 951.482 279.922 951.12 279.974C947.801 280.572 944.397 280.861 941.008 280.866Z" fill="#151515"/>
<path d="M854.866 324.119C854.733 324.119 854.601 324.093 854.497 324.016C849.915 321.097 845.873 319.523 841.377 318.856C841.006 318.805 840.752 318.443 840.817 318.08C840.882 317.718 841.236 317.484 841.633 317.51C846.342 318.203 850.54 319.854 855.279 322.876C855.591 323.083 855.683 323.497 855.461 323.808C855.322 323.989 855.105 324.119 854.866 324.119Z" fill="black"/>
<path d="M882.562 484.746C882.298 484.747 882.063 484.567 881.975 484.285C879.623 476.039 878.236 464.35 877.828 449.576C877.815 449.216 878.089 448.882 878.426 448.855C878.811 448.829 879.067 449.112 879.079 449.497C879.467 464.143 880.858 475.704 883.165 483.846C883.274 484.206 883.072 484.566 882.756 484.695C882.706 484.746 882.634 484.746 882.562 484.746Z" fill="black"/>
<path d="M762.026 484.478C761.734 484.478 761.51 484.221 761.498 483.862C761.125 472.535 762.059 460.669 762.062 460.54C762.092 460.181 762.371 459.872 762.661 459.923C762.953 459.949 763.175 460.257 763.145 460.642C763.142 460.745 762.21 472.534 762.585 483.758C762.598 484.117 762.36 484.452 762.067 484.477C762.047 484.477 762.047 484.477 762.026 484.478Z" fill="black"/>
<path d="M842.191 282.487C841.442 282.488 840.827 282.36 840.294 282.078C839.964 281.898 839.849 281.486 840.039 281.177C840.231 280.843 840.648 280.714 840.952 280.893C841.332 281.099 841.743 281.15 842.31 281.175C845.047 281.12 847.411 276.614 847.476 271.365C847.542 266.09 845.256 261.719 842.546 261.748C841.28 261.775 840.036 262.754 839.051 264.505C838.01 266.385 837.414 268.881 837.38 271.557C837.356 273.925 837.707 275.854 838.408 277.32C838.578 277.654 838.436 278.066 838.095 278.221C837.754 278.401 837.371 278.273 837.201 277.939C836.376 276.293 835.98 274.158 836.011 271.585C836.052 268.703 836.708 265.949 837.859 263.863C839.091 261.649 840.756 260.412 842.538 260.384C846.177 260.38 848.888 265.163 848.82 271.312C848.75 277.513 845.883 282.431 842.267 282.513C842.268 282.487 842.217 282.487 842.191 282.487Z" fill="black"/>
<path d="M825.207 282.115C821.646 282.119 818.935 277.337 819.003 271.187C819.044 268.305 819.699 265.577 820.849 263.492C822.081 261.277 823.747 260.04 825.528 260.012C826.715 260.011 827.809 260.499 828.734 261.424C830.66 263.326 831.833 266.978 831.784 270.94C831.743 273.822 831.087 276.576 829.937 278.662C828.704 280.876 827.039 282.113 825.258 282.141C825.259 282.115 825.233 282.115 825.207 282.115ZM825.588 261.35C824.246 261.378 823.027 262.357 822.042 264.108C821.002 265.987 820.405 268.51 820.371 271.16C820.307 276.383 822.54 280.78 825.276 280.777C826.592 280.75 827.837 279.771 828.822 278.02C829.862 276.14 830.459 273.644 830.493 270.968C830.532 267.34 829.501 264.073 827.826 262.403C827.1 261.683 826.363 261.349 825.588 261.35Z" fill="black"/>
<path d="M1403.74 422.554C1403.51 422.554 1403.27 422.426 1403.15 422.22C1395.48 408.212 1376.91 392.877 1371.4 389.147C1371.09 388.942 1371.02 388.529 1371.24 388.22C1371.46 387.91 1371.88 387.833 1372.19 388.038C1377.79 391.794 1396.55 407.36 1404.35 421.548C1404.52 421.883 1404.41 422.27 1404.06 422.476C1403.95 422.502 1403.85 422.554 1403.74 422.554Z" fill="black"/>
<path d="M1291.2 450.737C1289.29 450.739 1287.38 450.535 1285.46 450.125C1271.03 447.051 1259.72 426.972 1254.94 408.404C1254.84 408.043 1255.06 407.682 1255.43 407.579C1255.8 407.475 1256.16 407.681 1256.26 408.042C1260.95 426.223 1271.91 445.891 1285.79 448.837C1288.08 449.324 1290.38 449.501 1292.63 449.37C1293 449.395 1293.33 449.627 1293.34 450.013C1293.36 450.374 1293.06 450.709 1292.67 450.735C1292.17 450.736 1291.67 450.736 1291.2 450.737Z" fill="black"/>
<path d="M1396.31 452.628C1375.54 452.653 1349.32 423.989 1341.48 414.837C1341.23 414.554 1341.27 414.142 1341.57 413.884C1341.86 413.626 1342.27 413.652 1342.52 413.935C1364.12 439.156 1385.24 453.028 1399.06 451.081C1412.98 449.108 1421.69 432.678 1422.82 418.214C1423.97 403.62 1420.02 386.021 1411.11 365.932C1409.3 361.868 1407.25 357.856 1405.26 353.972C1404.09 351.683 1402.92 349.394 1401.77 347.079C1401.43 346.359 1401.09 345.639 1400.73 344.919C1398.3 339.877 1395.8 334.656 1391.44 331.007C1381.95 323.091 1366.96 323.804 1360.93 324.48C1360.57 324.584 1360.24 324.25 1360.2 323.889C1360.16 323.529 1360.46 323.194 1360.82 323.142C1367.01 322.44 1382.44 321.727 1392.33 329.95C1396.92 333.754 1399.46 339.129 1401.94 344.299C1402.28 345.02 1402.62 345.74 1402.98 346.434C1404.1 348.749 1405.27 351.013 1406.44 353.302C1408.44 357.211 1410.51 361.249 1412.32 365.339C1421.31 385.634 1425.29 403.438 1424.12 418.238C1422.94 433.243 1413.79 450.291 1399.15 452.368C1398.29 452.549 1397.3 452.627 1396.31 452.628Z" fill="black"/>
<path d="M1294.96 342.309C1294.8 342.309 1294.67 342.258 1294.54 342.18C1294.25 341.948 1294.19 341.534 1294.44 341.223C1303.13 330.631 1315.13 326.891 1324.6 324.81C1324.92 324.758 1332.03 323.327 1335.63 323.063C1336 323.037 1336.34 323.321 1336.35 323.683C1336.37 324.072 1336.06 324.382 1335.69 324.409C1332.18 324.672 1324.93 326.103 1324.85 326.129C1315.62 328.158 1303.94 331.795 1295.5 342.05C1295.36 342.205 1295.14 342.309 1294.96 342.309Z" fill="black"/>
<path d="M1330.13 315.947C1329.63 315.947 1329.14 315.922 1328.64 315.845C1325.65 315.463 1323.44 313.714 1321.82 310.549C1320.5 307.924 1319.58 304.938 1318.92 301.205C1318.65 299.66 1318.3 297.575 1317.93 295.361C1317.06 290.057 1315.97 283.466 1315.46 281.536C1315.36 281.175 1315.59 280.814 1315.95 280.711C1316.32 280.608 1316.68 280.813 1316.77 281.174C1317.28 283.181 1318.33 289.515 1319.27 295.127C1319.64 297.341 1319.99 299.401 1320.26 300.946C1320.9 304.55 1321.77 307.407 1323.04 309.929C1324.44 312.683 1326.35 314.2 1328.84 314.532C1330.87 314.813 1332.94 314.347 1334.34 313.984C1336.55 313.415 1339.76 312.459 1341.92 311.632C1342.29 311.503 1342.68 311.683 1342.8 312.017C1342.92 312.352 1342.75 312.764 1342.38 312.893C1340 313.797 1336.71 314.754 1334.63 315.297C1333.5 315.582 1331.87 315.944 1330.13 315.947Z" fill="black"/>
<path d="M1351.54 298.874C1350.75 298.874 1349.94 298.747 1349.19 298.516C1348.83 298.413 1348.66 298.027 1348.78 297.666C1348.89 297.305 1349.29 297.125 1349.65 297.227C1350.74 297.587 1351.94 297.611 1353.1 297.352C1356.58 296.523 1358.84 293.095 1358.11 289.696C1357.77 288.048 1356.77 286.658 1355.34 285.758C1353.9 284.884 1352.18 284.603 1350.5 284.991C1349.23 285.302 1348.09 285.947 1347.19 286.875C1346.92 287.133 1346.5 287.16 1346.22 286.902C1345.94 286.645 1345.96 286.233 1346.23 285.949C1347.31 284.815 1348.7 284.04 1350.23 283.678C1352.26 283.186 1354.36 283.518 1356.11 284.598C1357.85 285.678 1359.05 287.351 1359.46 289.359C1360.32 293.48 1357.59 297.656 1353.37 298.639C1352.77 298.795 1352.14 298.873 1351.54 298.874Z" fill="black"/>
<path d="M1353.77 295.105C1353.66 295.106 1353.56 295.08 1353.46 295.029L1348.21 292.254C1348.03 292.151 1347.91 291.971 1347.86 291.765C1347.84 291.56 1347.9 291.353 1348.06 291.199L1352.74 286.482C1353.01 286.198 1353.43 286.198 1353.71 286.455C1353.96 286.712 1353.97 287.15 1353.7 287.407L1349.67 291.48L1354.15 293.843C1354.48 294.023 1354.6 294.435 1354.4 294.744C1354.24 294.976 1354 295.105 1353.77 295.105Z" fill="black"/>
<path d="M1378.32 395.048C1377.98 395.049 1377.69 394.74 1377.7 394.381C1378.28 375.158 1372.04 357.947 1371.97 357.793C1371.83 357.459 1372.01 357.048 1372.33 356.919C1372.68 356.765 1373.04 356.944 1373.15 357.278C1373.22 357.458 1379.55 374.9 1378.97 394.405C1378.96 394.739 1378.66 395.048 1378.32 395.048Z" fill="black"/>
<path d="M1331.62 305.651C1331.33 305.652 1331.04 305.652 1330.75 305.627C1330.38 305.601 1330.11 305.266 1330.17 304.906C1330.21 304.545 1330.56 304.287 1330.93 304.286C1332.52 304.439 1333.74 304.102 1334.58 303.328C1335.99 302.012 1335.9 299.796 1335.9 299.77C1335.89 299.409 1336.19 299.074 1336.56 299.047C1336.95 299.073 1337.26 299.304 1337.27 299.665C1337.27 299.768 1337.39 302.526 1335.52 304.281C1334.55 305.184 1333.24 305.649 1331.62 305.651Z" fill="black"/>
<path d="M1287.99 484.456C1287.89 484.456 1287.83 484.43 1287.73 484.405C1287.44 484.251 1287.31 483.866 1287.46 483.506C1293.23 470.449 1293.9 434.842 1293.91 434.482C1293.92 434.097 1294.18 433.814 1294.53 433.814C1294.88 433.814 1295.13 434.096 1295.12 434.481C1295.1 435.946 1294.45 470.756 1288.55 484.096C1288.43 484.327 1288.22 484.456 1287.99 484.456Z" fill="black"/>
<path d="M1263.4 410.149C1256.3 410.158 1250.68 408.49 1248.43 405.531C1246.75 403.319 1245.54 400.461 1244.72 396.754C1243.49 391.193 1243.29 385.244 1244.15 379.577C1245.09 373.266 1252.29 367.849 1252.58 367.617C1252.9 367.385 1253.32 367.436 1253.54 367.745C1253.77 368.028 1253.7 368.465 1253.38 368.698C1253.3 368.749 1246.37 374.011 1245.5 379.73C1244.68 385.139 1244.88 391.088 1246.06 396.417C1246.83 399.919 1247.97 402.622 1249.55 404.68C1251.66 407.433 1258.48 409.64 1269.02 408.443C1272.19 408.078 1277.93 405.702 1277.62 401.607C1277.53 400.397 1276.86 399.394 1275.76 398.803C1275.42 398.623 1275.33 398.211 1275.5 397.901C1275.69 397.566 1276.11 397.437 1276.42 397.643C1277.88 398.439 1278.83 399.881 1278.96 401.503C1279.35 406.37 1273.3 409.339 1269.1 409.807C1267.14 410.042 1265.23 410.147 1263.4 410.149Z" fill="black"/>
<path d="M1269.32 390.209C1264.55 390.215 1254.44 389.168 1253.15 388.653C1252.79 388.524 1252.64 388.137 1252.79 387.775C1252.93 387.439 1253.36 387.257 1253.7 387.386C1254.85 387.824 1268 389.203 1270.99 388.76L1271.49 388.682C1272.8 388.526 1274.74 388.265 1275.46 387.205C1276.47 385.705 1276.76 384 1276.25 382.527C1275.84 381.314 1274.87 380.281 1273.39 379.456C1272.19 378.812 1270.81 378.891 1269.35 378.996C1268.97 379.023 1268.6 379.023 1268.23 379.049C1253.93 379.428 1251.41 376.331 1251.16 375.97C1250.96 375.66 1251.05 375.246 1251.35 375.039C1251.67 374.832 1252.1 374.883 1252.3 375.193C1252.38 375.27 1254.88 378.058 1268.22 377.706C1268.57 377.705 1268.94 377.679 1269.28 377.653C1270.88 377.548 1272.52 377.468 1274.06 378.293C1275.86 379.273 1277.03 380.537 1277.54 382.087C1278.17 383.946 1277.8 386.091 1276.58 387.953C1275.49 389.556 1273.15 389.869 1271.61 390.051L1271.13 390.13C1270.7 390.156 1270.06 390.208 1269.32 390.209Z" fill="black"/>
<path d="M1266.77 400.54C1259.84 400.549 1252.89 399.6 1252.78 399.6C1252.41 399.549 1252.16 399.213 1252.22 398.825C1252.29 398.463 1252.64 398.203 1253.04 398.255C1253.14 398.28 1264.09 399.767 1272.08 398.956C1274.96 398.668 1277.97 396.828 1277.79 393.517C1277.68 391.888 1276.55 390.053 1274.93 388.994C1274.62 388.788 1274.56 388.374 1274.78 388.063C1275 387.752 1275.46 387.674 1275.74 387.881C1277.69 389.198 1279.03 391.369 1279.14 393.412C1279.4 397.654 1275.69 399.986 1272.14 400.327C1270.47 400.458 1268.63 400.538 1266.77 400.54Z" fill="black"/>
<path d="M1338.57 343.413C1338.23 343.413 1337.9 343.362 1337.62 343.26C1333.49 341.824 1335.29 329.06 1335.77 326.178L1333.61 315.246C1333.55 314.886 1333.79 314.525 1334.16 314.448C1334.52 314.37 1334.87 314.601 1334.94 314.961L1337.11 325.996C1336.14 332.275 1335.78 341.178 1338.1 341.973C1341.54 343.229 1351.73 332.334 1357.45 325.02L1351.47 298.424C1351.38 298.064 1351.62 297.703 1351.98 297.6C1352.37 297.497 1352.7 297.728 1352.79 298.088L1358.84 324.993C1358.89 325.199 1358.83 325.405 1358.72 325.559C1357.22 327.516 1344.65 343.406 1338.57 343.413Z" fill="black"/>
<path d="M815.579 353.245C815.299 353.219 815.075 353.091 814.985 352.859L801.052 318.169C800.962 317.937 801.003 317.653 801.193 317.447L808.472 309.19C808.608 309.035 808.843 308.957 808.996 308.957C809.176 308.957 809.351 309.034 809.472 309.163L828.786 330.471L835.339 309.639C835.43 309.382 835.644 309.201 835.903 309.149C836.163 309.071 836.412 309.2 836.553 309.431L841.492 317.438C841.563 317.541 841.607 317.67 841.599 317.825L840.002 347.307C839.987 347.59 839.794 347.848 839.507 347.952C839.221 348.03 838.92 347.927 838.779 347.695L829.058 333.021L816.185 352.909C816.046 353.115 815.809 353.244 815.579 353.245ZM802.469 317.986L815.77 351.131L828.223 331.889L808.957 310.632L802.469 317.986ZM829.795 331.68L838.758 345.247L840.23 318.059L836.137 311.442L829.795 331.68Z" fill="black"/>
<path d="M827.966 377.037C827.701 377.038 827.446 376.858 827.387 376.575C824.106 362.72 819.577 348.789 819.535 348.66C819.432 348.326 819.595 347.94 819.94 347.785C820.259 347.656 820.637 347.81 820.739 348.17C820.781 348.298 825.307 362.281 828.61 376.188C828.688 376.548 828.478 376.908 828.159 377.037C828.086 377.037 828.014 377.037 827.966 377.037Z" fill="black"/>
<path d="M841.573 368.95C841.276 368.95 841.055 368.668 841.048 368.334C840.885 352.868 840.166 346.214 840.148 346.137C840.099 345.778 840.326 345.418 840.626 345.34C840.926 345.263 841.211 345.519 841.239 345.879C841.236 345.956 841.974 352.661 842.153 368.23C842.16 368.589 841.913 368.924 841.615 368.95C841.615 368.95 841.594 368.95 841.573 368.95Z" fill="black"/>
<path d="M827.86 353.21C827.652 353.211 827.45 353.108 827.33 352.927L821.62 344.419C821.43 344.109 821.504 343.696 821.828 343.463C822.153 343.231 822.564 343.308 822.78 343.617L828.275 351.79L835.085 351.135L836.354 341.738C836.401 341.351 836.7 341.118 837.115 341.118C837.477 341.143 837.744 341.478 837.698 341.84L836.346 351.804C836.302 352.139 836.028 352.398 835.689 352.424L827.941 353.159C827.912 353.21 827.886 353.21 827.86 353.21Z" fill="black"/>
<path d="M826.497 369.639C826.161 369.614 825.943 369.28 825.978 368.921L827.688 352.476C827.724 352.116 828.008 351.859 828.303 351.858C828.597 351.884 828.815 352.217 828.779 352.577L827.07 369.022C827.035 369.356 826.791 369.639 826.497 369.639Z" fill="black"/>
<path d="M841.235 363.429C840.986 363.43 840.77 363.301 840.682 363.07L835.988 352.115C835.857 351.781 836.002 351.369 836.333 351.214C836.665 351.033 837.054 351.187 837.186 351.521L841.88 362.476C842.012 362.811 841.866 363.223 841.535 363.377C841.435 363.403 841.334 363.429 841.235 363.429Z" fill="black"/>
<path d="M1426.46 485.942L737.538 485.667C737.161 485.666 736.846 485.07 736.854 484.375C736.863 483.68 737.192 483.084 737.568 483.084L1426.49 483.36C1426.87 483.36 1427.18 483.956 1427.17 484.651C1427.19 485.346 1426.86 485.942 1426.46 485.942Z" fill="#151515"/>
<path d="M1319.88 287.501C1320.41 287.295 1320.8 287.449 1321.34 289.326C1321.93 291.409 1321.45 291.898 1320.95 291.975C1320.45 292.053 1319.85 291.513 1319.57 289.996C1319.28 288.453 1319.19 287.759 1319.88 287.501Z" fill="black"/>
<path d="M1335.63 283.915C1336.16 283.735 1336.55 283.889 1337.04 285.766C1337.57 287.848 1337.07 288.337 1336.57 288.389C1336.07 288.466 1335.47 287.901 1335.24 286.384C1335.03 284.867 1334.94 284.173 1335.63 283.915Z" fill="black"/>
<path d="M1409.04 485.732C1408.74 485.706 1408.54 485.398 1408.57 485.039C1409.08 475.819 1409.31 449.701 1409.31 449.444C1409.32 449.059 1409.52 448.802 1409.82 448.776C1410.08 448.776 1410.3 449.058 1410.3 449.443C1410.29 449.7 1410.06 475.869 1409.55 485.115C1409.54 485.449 1409.31 485.732 1409.04 485.732Z" fill="black"/>
<path d="M1090.22 429.245C1078.15 429.26 1066.18 425.485 1057.07 416.087C1046.47 405.118 1041.55 389.966 1038.15 376.618C1034.44 362.083 1032.8 350.279 1030.71 335.382L1030.65 334.892C1030.63 334.763 1030.66 334.608 1030.72 334.505C1030.94 334.093 1036.09 324.523 1053.1 323.007C1068.42 321.648 1073.34 327.288 1073.54 327.519C1073.59 327.597 1073.64 327.674 1073.66 327.751L1086.8 371.378C1087.84 374.882 1088.81 378.181 1092.01 380.007C1095.14 381.782 1099.09 381.365 1102.14 378.938C1105.09 376.589 1106.8 373.158 1108.44 369.573C1109.24 367.819 1110.03 366.039 1110.83 364.234C1113.38 358.457 1116.02 352.499 1119.28 346.978C1123.93 339.085 1129.52 333.69 1135.9 330.95C1140.24 329.089 1144.12 328.543 1148.66 328.28C1149 328.253 1149.36 328.537 1149.37 328.923C1149.38 329.284 1149.08 329.62 1148.69 329.646C1144.32 329.883 1140.54 330.429 1136.41 332.213C1130.33 334.824 1124.95 340.011 1120.47 347.647C1117.27 353.116 1114.63 359.022 1112.1 364.774C1111.3 366.553 1110.51 368.359 1109.72 370.113C1108.07 373.724 1106.19 377.464 1103.03 379.994C1099.55 382.782 1094.96 383.251 1091.34 381.219C1087.7 379.136 1086.62 375.425 1085.55 371.843L1080.97 356.665L1072.43 328.371C1071.77 327.702 1066.74 323.171 1053.24 324.399C1038.31 325.732 1032.9 333.652 1032.1 334.942L1032.14 335.2C1034.23 350.071 1035.87 361.824 1039.55 376.307C1042.9 389.501 1047.75 404.472 1058.15 415.209C1074.35 431.945 1100.04 430.29 1118.32 421.272C1118.67 421.091 1119.06 421.219 1119.23 421.554C1119.41 421.889 1119.23 422.302 1118.91 422.457C1110.34 426.591 1100.26 429.233 1090.22 429.245Z" fill="black"/>
<path d="M1204.98 485.47C1204.66 485.471 1204.38 485.214 1204.37 484.88C1204.36 484.546 1202.21 450.169 1204.51 424.96C1206.8 399.853 1206.26 365.834 1206.25 365.475C1206.16 360.284 1203.87 353.992 1201.38 347.982C1199.41 343.153 1197.09 339.507 1194.33 336.864C1191.3 333.938 1187.92 332.195 1183.03 331.07C1182.69 330.993 1182.49 330.633 1182.57 330.274C1182.65 329.914 1182.97 329.682 1183.33 329.759C1188.38 330.909 1192.03 332.781 1195.2 335.835C1198.1 338.633 1200.49 342.407 1202.55 347.39C1205.08 353.528 1207.42 359.975 1207.52 365.396C1207.54 365.73 1208.08 399.826 1205.78 425.035C1203.49 450.142 1205.61 484.39 1205.65 484.724C1205.66 485.084 1205.41 485.418 1205.07 485.47C1205.03 485.47 1205 485.47 1204.98 485.47Z" fill="black"/>
<path d="M1092.24 429.325C1090.37 429.327 1088.48 429.252 1086.51 429.1C1086.15 429.075 1085.87 428.74 1085.91 428.379C1085.94 428.018 1086.29 427.76 1086.66 427.759C1141.52 432.257 1156.69 370.127 1156.84 369.508C1156.93 369.147 1157.31 368.915 1157.67 368.966C1158.04 369.043 1158.26 369.404 1158.2 369.765C1158.02 370.384 1143.64 429.263 1092.24 429.325Z" fill="black"/>
<path d="M1216.22 439.372C1210.15 439.379 1205.35 435.862 1205.28 435.81C1204.98 435.579 1204.94 435.168 1205.16 434.859C1205.37 434.55 1205.8 434.473 1206.07 434.704C1206.54 435.038 1217.57 443.124 1226.9 433.008C1239.65 419.134 1217.48 365.191 1196.78 338.654C1196.56 338.372 1196.6 337.934 1196.91 337.703C1197.2 337.471 1197.6 337.496 1197.84 337.804C1219.3 365.317 1241.31 419.312 1227.88 433.907C1224.06 438.051 1219.92 439.367 1216.22 439.372Z" fill="black"/>
<path d="M1139.16 318.128C1135.11 317.747 1132.12 316.258 1130.27 313.661C1127.32 309.547 1128.11 304.039 1128.4 302.546C1127.37 301.543 1124.06 298.124 1124.16 295.859C1124.26 293.389 1129.45 292.25 1131.74 291.861L1133.76 279.866C1133.96 279.351 1137.52 270.005 1143.18 268.711C1143.39 268.685 1143.59 268.711 1143.74 268.839C1143.89 268.968 1143.99 269.148 1143.99 269.354C1143.98 269.56 1144.04 289.53 1155.14 291.447C1155.5 291.498 1155.74 291.858 1155.66 292.219C1155.59 292.579 1155.22 292.863 1154.86 292.76C1143.97 290.894 1142.76 274.374 1142.64 270.282C1138.15 272.114 1135.1 280.096 1135.04 280.173L1132.99 292.555C1132.93 292.864 1132.69 293.095 1132.4 293.122C1129.12 293.614 1125.56 294.828 1125.53 295.883C1125.46 297.325 1128 300.281 1129.64 301.823C1129.81 301.978 1129.88 302.209 1129.82 302.441C1129.82 302.492 1128.41 308.645 1131.4 312.862C1133.04 315.125 1135.69 316.46 1139.31 316.79C1139.67 316.815 1139.94 317.15 1139.9 317.51C1139.81 317.87 1139.5 318.128 1139.16 318.128Z" fill="black"/>
<path d="M1165.77 333.049C1160.4 333.056 1155.19 332.109 1150.95 331.007C1147.36 330.085 1144.79 328.852 1142.87 327.155C1140.31 324.918 1139 321.829 1139.38 318.894C1139.98 314.104 1144.6 310.622 1148.38 309.098C1149.06 308.84 1149.83 308.607 1150.64 308.349C1153.83 307.418 1156.07 306.592 1156.25 304.274C1156.29 303.913 1156.58 303.63 1156.95 303.629C1157.34 303.655 1157.64 303.963 1157.6 304.324C1157.36 307.774 1153.81 308.809 1150.99 309.636C1150.2 309.869 1149.47 310.075 1148.86 310.334C1145.45 311.702 1141.26 314.823 1140.73 319.021C1140.42 321.493 1141.58 324.221 1143.78 326.149C1145.56 327.718 1147.97 328.848 1151.33 329.719C1159.03 331.718 1170.09 333.25 1178.98 329.094C1181.57 327.881 1183.5 326.359 1184.7 324.555C1188.07 319.53 1184.25 315.132 1180.55 311.866L1180.15 311.532C1179.11 310.658 1177.51 309.347 1177.74 307.673C1178.32 303.604 1180.24 296.675 1183.49 287.093C1183.64 286.706 1183.72 286.449 1183.72 286.397C1184.78 280.474 1183.89 275.634 1181.06 272.007C1176.63 266.322 1168.78 265.636 1168.71 265.636C1166.65 264.763 1164.87 264.276 1161.94 263.791C1144.8 260.901 1137.64 263.15 1134.56 272.295C1133.29 276.03 1135.15 282.851 1135.18 282.902C1135.27 283.263 1135.05 283.623 1134.71 283.752C1134.34 283.856 1133.98 283.65 1133.86 283.316C1133.77 283.033 1131.88 276.057 1133.27 271.936C1137.07 260.653 1147.15 259.972 1162.19 262.503C1164.73 262.937 1166.75 263.399 1168.96 264.349C1170.05 264.45 1177.58 265.368 1182.13 271.208C1185.18 275.118 1186.16 280.318 1185.02 286.679C1185.02 286.705 1184.93 287.014 1184.76 287.529C1180.75 299.352 1179.47 305.096 1179.07 307.851C1178.93 308.804 1180.17 309.833 1181.01 310.527L1181.44 310.887C1185.22 314.23 1189.8 319.348 1185.8 325.301C1184.46 327.311 1182.32 329.013 1179.51 330.329C1175.2 332.317 1170.43 333.044 1165.77 333.049Z" fill="black"/>
<path d="M986.489 322.609C986.306 322.61 986.15 322.558 986.024 322.404C985.77 322.146 985.784 321.708 986.055 321.45L1015.33 293.558C1015.6 293.3 1016.05 293.299 1016.3 293.557C1016.55 293.814 1016.54 294.252 1016.27 294.51L986.968 322.403C986.833 322.532 986.647 322.609 986.489 322.609Z" fill="#151515"/>
<path d="M978.031 322.492C977.847 322.492 977.692 322.441 977.565 322.287L968.268 312.866C968.014 312.609 968.028 312.171 968.299 311.913C968.57 311.655 969.016 311.654 969.27 311.912L978.567 321.332C978.821 321.589 978.807 322.027 978.536 322.285C978.401 322.415 978.215 322.492 978.031 322.492Z" fill="#151515"/>
<path d="M933.677 339.229C933.493 339.229 933.337 339.178 933.211 339.023C932.957 338.766 932.972 338.328 933.242 338.07L960.921 311.7C961.192 311.442 961.638 311.442 961.892 311.699C962.146 311.956 962.132 312.394 961.861 312.652L934.182 339.022C934.021 339.151 933.861 339.229 933.677 339.229Z" fill="#151515"/>
<path d="M925.06 339.606C924.877 339.606 924.721 339.555 924.595 339.4L904.476 319.015C904.222 318.758 904.236 318.319 904.507 318.061C904.778 317.803 905.224 317.803 905.478 318.06L925.597 338.445C925.851 338.703 925.837 339.141 925.566 339.399C925.404 339.528 925.218 339.606 925.06 339.606Z" fill="#151515"/>
<path d="M964.873 314.34C961.619 314.344 959.054 311.745 959.158 308.549C959.263 305.354 961.998 302.748 965.252 302.744C968.506 302.74 971.071 305.339 970.967 308.535C970.863 311.73 968.127 314.337 964.873 314.34ZM965.207 304.109C962.715 304.112 960.628 306.125 960.549 308.547C960.469 310.996 962.425 312.978 964.918 312.975C967.411 312.972 969.496 310.985 969.576 308.537C969.655 306.114 967.7 304.106 965.207 304.109Z" fill="#151515"/>
<path d="M982.416 331.431C979.162 331.435 976.596 328.835 976.7 325.665C976.804 322.47 979.54 319.864 982.794 319.86C986.048 319.856 988.614 322.455 988.509 325.651C988.406 328.821 985.67 331.427 982.416 331.431ZM982.75 321.2C980.257 321.203 978.172 323.189 978.092 325.638C978.012 328.086 979.968 330.068 982.461 330.065C984.954 330.062 987.039 328.075 987.119 325.627C987.225 323.179 985.243 321.197 982.75 321.2Z" fill="#151515"/>
<path d="M929.338 348.363C926.084 348.367 923.518 345.767 923.622 342.597C923.726 339.402 926.462 336.796 929.716 336.792C932.97 336.788 935.535 339.387 935.431 342.583C935.301 345.753 932.592 348.359 929.338 348.363ZM929.672 338.132C927.179 338.135 925.093 340.122 925.013 342.57C924.933 345.018 926.889 347 929.382 346.997C931.875 346.994 933.961 345.007 934.041 342.559C934.12 340.137 932.165 338.129 929.672 338.132Z" fill="#151515"/>
<path d="M900.462 320.284C897.208 320.288 894.643 317.688 894.747 314.492C894.852 311.297 897.587 308.691 900.841 308.687C904.095 308.683 906.66 311.283 906.556 314.478C906.452 317.674 903.716 320.28 900.462 320.284ZM900.797 310.027C898.304 310.03 896.218 312.043 896.139 314.465C896.06 316.887 898.015 318.895 900.508 318.892C903.001 318.889 905.087 316.877 905.166 314.454C905.245 312.032 903.317 310.024 900.797 310.027Z" fill="#151515"/>
<path d="M1336.87 434.969L1274.84 435.043C1274.56 435.043 1274.3 434.863 1274.2 434.58L1266.47 410.183C1266.35 409.822 1266.57 409.436 1266.91 409.332C1267.29 409.228 1267.67 409.408 1267.77 409.743L1275.36 433.702L1335.94 433.629L1308.26 346.244L1247.68 346.316L1257.34 376.819C1257.46 377.18 1257.24 377.567 1256.89 377.67C1256.52 377.799 1256.16 377.594 1256.04 377.259L1246.09 345.88C1246.02 345.674 1246.08 345.442 1246.19 345.262C1246.33 345.081 1246.54 344.978 1246.75 344.977L1308.77 344.903C1309.06 344.902 1309.32 345.083 1309.42 345.366L1337.53 434.091C1337.6 434.298 1337.54 434.53 1337.43 434.71C1337.32 434.839 1337.1 434.968 1336.87 434.969Z" fill="black"/>
<path d="M1340.99 431.305L1335.73 431.312C1335.37 431.312 1335.06 431.003 1335.07 430.642C1335.08 430.282 1335.41 429.972 1335.78 429.972L1340.08 429.966L1312.4 342.581L1251.82 342.653L1252.47 344.689C1252.59 345.049 1252.36 345.436 1252.02 345.54C1251.65 345.669 1251.29 345.463 1251.17 345.128L1250.24 342.217C1250.16 342.011 1250.22 341.779 1250.34 341.599C1250.47 341.418 1250.69 341.315 1250.9 341.314L1312.92 341.24C1313.21 341.239 1313.46 341.42 1313.56 341.703L1341.67 430.428C1341.74 430.634 1341.68 430.866 1341.57 431.047C1341.41 431.202 1341.2 431.305 1340.99 431.305Z" fill="black"/>
<path d="M1313.41 286.892C1313.04 286.893 1312.73 286.583 1312.75 286.221C1312.76 285.885 1313.06 278.213 1325.34 274.685C1336.78 271.39 1339.97 266.426 1340 266.375C1340.16 266.116 1340.49 265.986 1340.77 266.064C1341.06 266.115 1341.27 266.373 1341.28 266.657C1341.28 266.812 1341.91 281.51 1348.36 284.344C1348.7 284.499 1348.85 284.886 1348.68 285.222C1348.51 285.558 1348.08 285.713 1347.74 285.559C1341.91 282.983 1340.4 272.574 1340.01 268.441C1338.2 270.303 1334.06 273.563 1325.69 275.976C1314.49 279.193 1314.13 285.91 1314.12 286.194C1314.11 286.581 1313.78 286.892 1313.41 286.892Z" fill="black"/>
<path d="M1353.63 310.189C1353.31 310.189 1353.03 309.957 1352.96 309.648C1352.89 309.287 1353.17 308.926 1353.54 308.874C1357.81 308.12 1367.3 304.73 1369.9 300.317C1370.62 299.078 1370.74 297.866 1370.25 296.603C1370.08 296.19 1369.86 295.778 1369.66 295.365C1369.39 294.85 1369.12 294.334 1368.92 293.767C1368.03 291.267 1368.69 288.738 1369.35 286.313C1369.65 285.255 1369.89 284.275 1370.06 283.269C1370.67 279.193 1370.22 275.016 1368.77 271.226C1366.27 264.627 1360.91 260.016 1354.05 258.58C1351.8 258.093 1349.38 257.916 1346.9 258.073C1346.8 258.073 1346.56 258.125 1346.24 258.177C1344.04 258.541 1343.64 258.567 1343.34 258.206C1339.65 254.317 1332.71 252.855 1326.82 254.745C1323.07 255.961 1319.82 258.338 1317.94 261.306C1317.32 262.287 1316.76 263.319 1316.23 264.326C1315.64 265.436 1315.05 266.571 1314.33 267.655C1312.41 270.598 1310.01 272.277 1307.47 274.085C1306.8 274.55 1306.13 275.041 1305.42 275.558C1304.4 276.333 1303.49 277.546 1302.72 279.172C1300.82 283.198 1300.81 287.634 1301.16 290.651C1302.39 301.482 1310.26 308.9 1320.41 308.888C1320.62 308.887 1320.8 308.887 1321.01 308.887C1321.41 308.886 1321.69 309.17 1321.7 309.531C1321.69 309.892 1321.39 310.202 1321.02 310.228C1309.83 310.628 1301.11 302.592 1299.78 290.833C1299.41 287.635 1299.44 282.941 1301.47 278.632C1302.32 276.825 1303.4 275.431 1304.61 274.502C1305.32 273.985 1306.02 273.468 1306.69 273.003C1309.23 271.22 1311.41 269.67 1313.16 266.96C1313.83 265.928 1314.42 264.818 1314.98 263.734C1315.52 262.702 1316.11 261.644 1316.75 260.611C1318.8 257.385 1322.31 254.776 1326.39 253.456C1332.68 251.411 1340.08 252.975 1344.14 257.097C1344.56 257.07 1345.54 256.914 1345.99 256.836C1346.39 256.759 1346.71 256.707 1346.81 256.706C1349.4 256.549 1351.95 256.726 1354.34 257.239C1361.64 258.778 1367.35 263.697 1370 270.709C1371.5 274.705 1371.99 279.088 1371.35 283.396C1371.18 284.48 1370.91 285.538 1370.61 286.595C1369.98 288.917 1369.38 291.136 1370.15 293.25C1370.32 293.74 1370.57 294.204 1370.82 294.693C1371.07 295.132 1371.29 295.596 1371.49 296.06C1372.12 297.684 1371.98 299.309 1371.04 300.935C1367.94 306.2 1357.23 309.565 1353.68 310.189C1353.71 310.189 1353.68 310.189 1353.63 310.189Z" fill="black"/>
<path d="M1316.11 285.457C1315.9 285.457 1315.71 285.38 1315.56 285.199C1315.33 284.915 1315.4 284.476 1315.7 284.243C1315.78 284.166 1317.84 282.639 1320.38 282.171C1320.78 282.119 1321.11 282.351 1321.18 282.713C1321.25 283.074 1320.97 283.436 1320.6 283.514C1318.41 283.93 1316.54 285.301 1316.51 285.327C1316.43 285.405 1316.27 285.457 1316.11 285.457Z" fill="black"/>
<path d="M1329.83 281.527C1329.64 281.527 1329.43 281.449 1329.3 281.293C1329.04 281.008 1329.11 280.592 1329.39 280.332C1329.55 280.175 1333.66 276.844 1339.67 279.305C1340.01 279.461 1340.18 279.851 1340.01 280.189C1339.84 280.527 1339.43 280.683 1339.09 280.554C1333.88 278.429 1330.31 281.318 1330.29 281.344C1330.18 281.474 1330.01 281.526 1329.83 281.527Z" fill="black"/>
<path d="M1342.42 415.427C1341.61 415.428 1341.01 415.196 1340.58 414.733C1339.21 413.214 1340.49 410.119 1344.38 405.526C1344.62 405.242 1345.07 405.19 1345.35 405.422C1345.63 405.653 1345.67 406.091 1345.43 406.375C1341.65 410.814 1341.03 413.16 1341.63 413.829C1342.06 414.319 1343.83 414.214 1347.36 412.379C1350.73 410.622 1354.74 407.782 1358.69 404.374C1362.64 400.967 1366.02 397.406 1368.22 394.361C1370.53 391.136 1370.85 389.435 1370.42 388.945C1369.79 388.25 1368.14 388.613 1365.39 390.034C1365.07 390.215 1364.63 390.087 1364.48 389.777C1364.3 389.443 1364.45 389.03 1364.8 388.875C1367.31 387.557 1370.05 386.445 1371.5 388.042C1372.59 389.252 1371.86 391.65 1369.35 395.108C1367.09 398.255 1363.63 401.894 1359.6 405.379C1355.57 408.863 1351.45 411.781 1348 413.59C1345.62 414.804 1343.76 415.425 1342.42 415.427Z" fill="black"/>
<path d="M1326.53 300.955C1324.86 300.957 1323.46 300.418 1322.78 299.468C1322.25 298.723 1322.2 297.797 1322.66 296.871C1323.47 295.173 1324.26 287.896 1324.52 285.247C1324.55 284.887 1324.79 284.63 1325.25 284.603C1325.6 284.629 1325.87 284.937 1325.83 285.323C1325.75 286.325 1324.91 295.197 1323.86 297.435C1323.61 297.924 1323.63 298.335 1323.87 298.669C1324.4 299.414 1325.98 299.798 1327.61 299.539C1327.97 299.487 1328.31 299.744 1328.35 300.104C1328.39 300.464 1328.13 300.824 1327.77 300.876C1327.34 300.928 1326.91 300.954 1326.53 300.955Z" fill="black"/>
<path d="M1258.43 352.833C1257.21 352.834 1255.94 352.192 1254.77 350.984C1253.39 349.571 1252.32 347.488 1251.7 345.121C1250.39 340.028 1251.7 335.369 1254.7 334.516C1257.49 333.741 1260.63 336.593 1262.11 341.172C1262.23 341.532 1262.03 341.892 1261.67 342.021C1261.3 342.15 1260.92 341.971 1260.83 341.611C1259.61 337.778 1257.06 335.234 1255.05 335.802C1252.86 336.422 1251.95 340.515 1253.03 344.733C1253.58 346.894 1254.55 348.772 1255.78 350.031C1256.9 351.188 1258.08 351.675 1259.07 351.391C1259.43 351.287 1259.79 351.493 1259.88 351.853C1259.97 352.213 1259.75 352.574 1259.39 352.677C1259.08 352.78 1258.74 352.832 1258.43 352.833Z" fill="black"/>
<path d="M1277.89 352.875C1276.67 352.876 1275.4 352.235 1274.22 351.027C1272.85 349.613 1271.78 347.53 1271.16 345.164C1269.85 340.07 1271.16 335.411 1274.16 334.558C1276.95 333.783 1280.09 336.636 1281.57 341.214C1281.68 341.574 1281.49 341.935 1281.13 342.064C1280.76 342.193 1280.38 342.013 1280.29 341.653C1279.07 337.821 1276.51 335.276 1274.51 335.845C1272.32 336.465 1271.41 340.557 1272.49 344.776C1273.04 346.937 1274.01 348.814 1275.24 350.073C1276.36 351.23 1277.53 351.718 1278.53 351.433C1278.89 351.33 1279.25 351.535 1279.34 351.896C1279.43 352.256 1279.21 352.616 1278.85 352.72C1278.53 352.823 1278.2 352.875 1277.89 352.875Z" fill="black"/>
<path d="M1297.5 352.919C1296.29 352.921 1295.01 352.279 1293.84 351.071C1292.46 349.657 1291.39 347.574 1290.77 345.208C1290.18 342.841 1290.1 340.474 1290.6 338.518C1291.13 336.433 1292.26 335.042 1293.75 334.603C1296.53 333.828 1299.67 336.68 1301.15 341.259C1301.27 341.619 1301.08 341.979 1300.71 342.108C1300.35 342.237 1299.99 342.058 1299.87 341.698C1298.65 337.865 1296.1 335.321 1294.09 335.889C1293.1 336.173 1292.32 337.203 1291.91 338.799C1291.46 340.524 1291.52 342.685 1292.08 344.82C1292.63 346.981 1293.6 348.858 1294.83 350.118C1295.95 351.274 1297.12 351.762 1298.11 351.478C1298.48 351.374 1298.83 351.58 1298.93 351.94C1299.02 352.3 1298.8 352.66 1298.43 352.764C1298.12 352.867 1297.81 352.919 1297.5 352.919Z" fill="black"/>
<path d="M1076.2 509.976C1076.12 509.976 1041.92 506.826 1041.92 506.826C1041.6 506.8 1041.37 506.567 1041.33 506.256C1041.28 505.944 1041.45 505.659 1041.75 505.529L1069.7 493.61C1069.81 493.558 1069.94 493.558 1070.05 493.558L1079.51 494.429C1079.88 494.454 1080.16 494.791 1080.1 495.155C1080.06 495.544 1079.68 495.778 1079.33 495.778L1070.06 494.907L1044.73 505.707L1076.06 508.601L1090.01 500.825C1090.34 500.643 1090.76 500.747 1090.97 501.058C1091.14 501.369 1091.02 501.784 1090.7 501.992L1076.55 509.898C1076.47 509.924 1076.33 509.976 1076.2 509.976Z" fill="#0F132D"/>
<path d="M1095.42 505.081C1095.28 505.081 1095.18 505.055 1095.07 504.977L1073.55 492.554C1073.29 492.398 1073.16 492.112 1073.25 491.826C1073.32 491.54 1073.59 491.332 1073.88 491.306L1102.63 488.594C1102.74 488.594 1102.87 488.593 1102.98 488.645L1130.18 500.516C1130.47 500.646 1130.62 500.932 1130.55 501.244C1130.49 501.556 1130.24 501.79 1129.92 501.816L1095.47 505.055C1095.44 505.081 1095.42 505.081 1095.42 505.081ZM1076.11 492.447L1095.6 503.703L1127.15 500.728L1102.51 489.971L1076.11 492.447Z" fill="#0F132D"/>
<path d="M1300.48 360.953L1260.15 360.997C1259.77 360.998 1259.46 360.658 1259.47 360.261C1259.48 359.864 1259.81 359.524 1260.19 359.523L1300.52 359.478C1300.9 359.478 1301.21 359.818 1301.2 360.215C1301.19 360.612 1300.86 360.952 1300.48 360.953Z" fill="black"/>
<path d="M1304.03 371.258L1263.69 371.302C1263.31 371.303 1263 370.963 1263.01 370.566C1263.03 370.169 1263.36 369.829 1263.73 369.828L1304.07 369.783C1304.44 369.783 1304.76 370.123 1304.74 370.52C1304.76 370.917 1304.43 371.257 1304.03 371.258Z" fill="black"/>
<path d="M1310.85 390.506L1276.83 390.544C1276.46 390.544 1276.15 390.209 1276.16 389.818C1276.17 389.427 1276.5 389.091 1276.88 389.09L1310.9 389.052C1311.27 389.051 1311.58 389.387 1311.57 389.778C1311.56 390.169 1311.23 390.505 1310.85 390.506Z" fill="black"/>
<path d="M1307.68 381.357L1276 381.393C1275.62 381.393 1275.31 381.06 1275.32 380.671C1275.33 380.281 1275.66 379.947 1276.04 379.947L1307.72 379.911C1308.1 379.91 1308.41 380.244 1308.4 380.633C1308.38 381.022 1308.05 381.356 1307.68 381.357Z" fill="black"/>
<path d="M1314.32 400.605L1278.58 400.645C1278.2 400.646 1277.89 400.309 1277.9 399.916C1277.91 399.523 1278.25 399.186 1278.62 399.186L1314.36 399.146C1314.74 399.145 1315.05 399.482 1315.04 399.875C1315.03 400.267 1314.69 400.605 1314.32 400.605Z" fill="black"/>
<path d="M1317.79 410.703L1277.45 410.748C1277.08 410.748 1276.76 410.408 1276.78 410.011C1276.79 409.614 1277.12 409.274 1277.5 409.273L1317.83 409.229C1318.21 409.228 1318.52 409.568 1318.51 409.965C1318.5 410.362 1318.19 410.702 1317.79 410.703Z" fill="black"/>
<path d="M1240.18 315.757L1207.96 315.796C1207.59 315.796 1207.29 315.487 1207.3 315.127L1208.33 283.48C1208.34 283.12 1208.67 282.81 1209.03 282.809L1241.26 282.771C1241.63 282.77 1241.93 283.079 1241.92 283.44L1240.89 315.086C1240.88 315.447 1240.55 315.757 1240.18 315.757ZM1208.69 314.455L1239.55 314.418L1240.53 284.111L1209.67 284.149L1208.69 314.455Z" fill="#151515"/>
<path d="M1101.92 269.308L1069.69 269.347C1069.32 269.347 1069.02 269.038 1069.03 268.677L1070.07 237.031C1070.08 236.67 1070.4 236.361 1070.77 236.36L1102.99 236.322C1103.36 236.321 1103.67 236.63 1103.65 236.991L1102.62 268.637C1102.61 269.024 1102.28 269.307 1101.92 269.308ZM1070.42 268.006L1101.28 267.969L1102.27 237.662L1071.41 237.7L1070.42 268.006Z" fill="black"/>
<path d="M1086.49 245.09C1084.79 245.093 1083.41 243.728 1083.47 242.053C1083.52 240.378 1084.96 239.011 1086.69 239.008C1088.4 239.006 1089.77 240.371 1089.71 242.046C1089.66 243.721 1088.22 245.088 1086.49 245.09ZM1086.65 240.349C1085.68 240.35 1084.89 241.124 1084.86 242.052C1084.83 243.005 1085.59 243.752 1086.54 243.75C1087.51 243.749 1088.29 242.975 1088.32 242.047C1088.38 241.094 1087.62 240.347 1086.65 240.349Z" fill="black"/>
<path d="M1096.59 251.651L1092.88 251.656C1092.51 251.656 1092.2 251.344 1092.21 250.98C1092.22 250.616 1092.55 250.303 1092.92 250.303L1096.64 250.298C1097.01 250.298 1097.32 250.61 1097.31 250.974C1097.32 251.364 1096.99 251.651 1096.59 251.651Z" fill="black"/>
<path d="M1085.06 251.626L1076.4 251.636C1076.03 251.637 1075.72 251.321 1075.73 250.952C1075.74 250.583 1076.07 250.267 1076.45 250.267L1085.1 250.256C1085.48 250.256 1085.79 250.571 1085.78 250.94C1085.79 251.335 1085.46 251.625 1085.06 251.626Z" fill="black"/>
<path d="M1096.53 258.199L1076.33 258.223C1075.95 258.223 1075.64 257.899 1075.65 257.519C1075.66 257.14 1076 256.815 1076.37 256.814L1096.58 256.791C1096.95 256.79 1097.26 257.115 1097.25 257.494C1097.24 257.873 1096.94 258.199 1096.53 258.199Z" fill="black"/>
<path d="M1224.76 291.54C1223.05 291.542 1221.68 290.178 1221.73 288.503C1221.79 286.828 1223.22 285.46 1224.96 285.458C1226.66 285.456 1228.03 286.82 1227.98 288.495C1227.93 290.171 1226.49 291.538 1224.76 291.54ZM1224.91 286.772C1223.94 286.774 1223.16 287.548 1223.13 288.476C1223.1 289.403 1223.86 290.175 1224.8 290.174C1225.77 290.173 1226.56 289.399 1226.59 288.471C1226.62 287.544 1225.88 286.771 1224.91 286.772Z" fill="black"/>
<path d="M1234.88 298.102L1214.67 298.125C1214.3 298.126 1213.99 297.801 1214 297.422C1214.01 297.043 1214.34 296.717 1214.72 296.717L1234.92 296.693C1235.3 296.693 1235.61 297.018 1235.6 297.397C1235.59 297.776 1235.25 298.101 1234.88 298.102Z" fill="#151515"/>
<path d="M1224.26 304.626L1214.62 304.637C1214.24 304.638 1213.93 304.321 1213.94 303.952C1213.96 303.582 1214.29 303.265 1214.66 303.264L1224.31 303.253C1224.68 303.252 1225 303.569 1224.98 303.938C1224.97 304.308 1224.64 304.625 1224.26 304.626Z" fill="#151515"/>
<path d="M972.626 392.504L956.989 392.522C956.614 392.522 956.302 392.201 956.314 391.826C956.325 391.451 956.657 391.129 957.033 391.129L972.67 391.11C973.046 391.11 973.358 391.431 973.346 391.806C973.334 392.181 973.002 392.503 972.626 392.504Z" fill="#151515"/>
<path d="M949.598 392.453L890.612 392.515C890.236 392.516 889.923 392.162 889.934 391.749C889.946 391.337 890.277 390.983 890.654 390.982L949.639 390.92C950.015 390.92 950.328 391.273 950.317 391.686C950.306 392.098 949.974 392.452 949.598 392.453Z" fill="#151515"/>
<path d="M953.8 404.402L890.515 404.468C890.139 404.468 889.826 404.112 889.837 403.696C889.848 403.279 890.18 402.922 890.556 402.922L953.842 402.856C954.218 402.855 954.531 403.212 954.52 403.628C954.508 404.044 954.177 404.401 953.8 404.402Z" fill="#151515"/>
<path d="M972.433 416.383L934.974 416.425C934.598 416.426 934.286 416.088 934.297 415.694C934.309 415.299 934.641 414.961 935.017 414.96L972.476 414.918C972.852 414.918 973.164 415.256 973.153 415.65C973.14 416.073 972.809 416.383 972.433 416.383Z" fill="#151515"/>
<path d="M907.103 416.238L890.417 416.258C890.042 416.259 889.73 415.937 889.742 415.561C889.753 415.185 890.085 414.862 890.461 414.861L907.146 414.842C907.522 414.841 907.834 415.163 907.822 415.539C907.809 415.942 907.478 416.238 907.103 416.238Z" fill="#151515"/>
<path d="M1035.11 392.642L1014.07 392.667C1013.69 392.667 1013.38 392.342 1013.39 391.962C1013.41 391.582 1013.74 391.256 1014.11 391.255L1035.15 391.231C1035.53 391.23 1035.84 391.556 1035.83 391.936C1035.82 392.315 1035.51 392.641 1035.11 392.642Z" fill="#151515"/>
<path d="M1048.93 404.613L1013.97 404.652C1013.6 404.653 1013.29 404.317 1013.3 403.925C1013.31 403.532 1013.64 403.196 1014.02 403.196L1048.98 403.156C1049.35 403.156 1049.66 403.492 1049.65 403.884C1049.64 404.276 1049.34 404.613 1048.93 404.613Z" fill="#151515"/>
<path d="M1053.46 416.563L1013.88 416.607C1013.5 416.607 1013.19 416.268 1013.2 415.872C1013.21 415.476 1013.54 415.136 1013.92 415.135L1053.5 415.091C1053.88 415.091 1054.19 415.43 1054.18 415.826C1054.17 416.251 1053.86 416.562 1053.46 416.563Z" fill="#151515"/>
<path d="M1208 450.548L1206.74 450.549C1206.37 450.55 1206.06 450.241 1206.07 449.879C1206.08 449.518 1206.41 449.208 1206.78 449.208L1208.05 449.206C1215.89 449.197 1222.25 444.39 1223.88 437.268C1223.97 436.906 1224.32 436.699 1224.71 436.725C1225.08 436.802 1225.33 437.137 1225.24 437.524C1223.43 445.318 1216.53 450.538 1208 450.548Z" fill="#151515"/>
<path d="M1225.1 389.675C1224.87 389.675 1224.69 389.367 1224.69 389.008L1225.79 321.727C1225.79 321.368 1225.99 321.06 1226.22 321.06C1226.44 321.06 1226.63 321.368 1226.63 321.727L1225.53 389.007C1225.52 389.392 1225.32 389.675 1225.1 389.675Z" fill="#151515"/>
<path d="M1224.63 276.901C1224.26 276.902 1223.95 276.59 1223.96 276.227L1225.59 226.69C1225.87 218.092 1219.22 211.086 1210.79 211.096L1005.13 211.345C1004.76 211.345 1004.45 211.034 1004.46 210.671C1004.47 210.307 1004.8 209.995 1005.18 209.994L1210.84 209.746C1220.07 209.735 1227.31 217.337 1227 226.688L1225.37 276.199C1225.33 276.589 1225 276.901 1224.63 276.901Z" fill="#151515"/>
<path d="M854.728 351.539C854.389 351.539 854.108 351.231 854.118 350.871L857.797 226.446C858.071 217.195 865.093 209.658 873.466 209.649L885.178 209.636C885.517 209.635 885.798 209.943 885.788 210.303C885.777 210.663 885.478 210.971 885.139 210.972L873.427 210.985C865.755 210.994 859.331 217.939 859.08 226.445L855.402 350.844C855.366 351.23 855.091 351.538 854.728 351.539Z" fill="#151515"/>
<path d="M1110.74 450.281L870.075 450.57C860.816 450.581 853.547 442.916 853.855 433.487L854.749 406.089C854.76 405.723 855.092 405.408 855.466 405.408C855.841 405.407 856.152 405.721 856.14 406.088L855.246 433.485C854.963 442.155 861.636 449.218 870.092 449.208L1110.76 448.919C1111.14 448.918 1111.45 449.232 1111.43 449.599C1111.45 449.966 1111.12 450.28 1110.74 450.281Z" fill="#151515"/>
<path d="M1296.57 261.979L1277.86 262.007C1277.5 262.008 1277.21 261.699 1277.23 261.338C1277.25 260.977 1277.57 260.667 1277.93 260.667L1295.98 260.64L1303.05 131.306L1174.24 131.498L1169.92 210.485C1169.9 210.846 1169.58 211.156 1169.22 211.157C1168.86 211.157 1168.57 210.848 1168.59 210.487L1172.94 130.83C1172.96 130.469 1173.29 130.159 1173.65 130.159L1303.79 129.964C1304.15 129.964 1304.44 130.273 1304.42 130.634L1297.28 261.308C1297.26 261.669 1296.93 261.979 1296.57 261.979Z" fill="#151515"/>
<path d="M1283.04 261.926L1227.44 262.005C1227.06 262.005 1226.76 261.65 1226.77 261.234C1226.79 260.819 1227.13 260.463 1227.51 260.462L1283.11 260.383C1283.48 260.383 1283.79 260.738 1283.77 261.154C1283.75 261.569 1283.41 261.926 1283.04 261.926Z" fill="#151515"/>
<path d="M1202.83 210.966C1202.49 210.967 1202.21 210.658 1202.23 210.298L1204.88 158.767L1182.88 158.799L1180.24 210.305C1180.22 210.665 1179.91 210.974 1179.56 210.975C1179.22 210.975 1178.94 210.667 1178.96 210.307L1181.64 158.132C1181.66 157.772 1181.97 157.463 1182.31 157.462L1205.59 157.428C1205.93 157.428 1206.21 157.736 1206.19 158.096L1203.51 210.296C1203.49 210.656 1203.2 210.965 1202.83 210.966Z" fill="#151515"/>
<path d="M1245.45 234.581L1227.14 234.608C1226.79 234.608 1226.51 234.3 1226.53 233.94C1226.55 233.579 1226.86 233.27 1227.21 233.27L1244.88 233.244L1247.26 187.441L1225.09 187.473L1223.59 216.319C1223.57 216.679 1223.26 216.988 1222.91 216.989C1222.56 216.989 1222.28 216.681 1222.3 216.321L1223.83 186.806C1223.85 186.446 1224.17 186.137 1224.51 186.136L1247.97 186.102C1248.31 186.101 1248.6 186.409 1248.58 186.77L1246.13 233.937C1246.13 234.297 1245.82 234.58 1245.45 234.581Z" fill="#151515"/>
<path d="M1288.77 234.675L1264.66 234.711C1264.3 234.711 1264.02 234.403 1264.04 234.042L1265.65 203.979C1265.67 203.618 1266 203.308 1266.35 203.308L1290.46 203.272C1290.82 203.271 1291.11 203.58 1291.09 203.941L1289.47 234.004C1289.45 234.39 1289.13 234.674 1288.77 234.675ZM1265.39 233.37L1288.18 233.336L1289.73 204.612L1266.94 204.646L1265.39 233.37Z" fill="#151515"/>
<path d="M831.323 273.036C831.191 273.036 831.059 273.011 830.955 272.933C830.643 272.727 830.55 272.313 830.773 272.002C830.801 271.95 831.778 270.526 833.491 270.162C834.588 269.927 835.722 270.185 836.84 270.934C837.152 271.14 837.218 271.554 836.995 271.865C836.772 272.176 836.344 272.254 836.032 272.047C835.227 271.505 834.463 271.299 833.767 271.455C832.643 271.689 831.947 272.673 831.947 272.673C831.779 272.932 831.563 273.036 831.323 273.036Z" fill="black"/>
<path d="M857.402 397.358C857.182 397.358 856.995 397.255 856.891 397.049C856.764 396.818 856.814 396.534 856.982 396.302L884.23 359.493C884.286 359.416 884.366 359.338 884.468 359.287C885.784 358.537 886.949 358.381 887.939 358.817C888.506 359.048 889.009 359.46 889.47 360.051C890.663 361.518 890.718 363.373 889.67 364.972C890.864 365.872 892.184 367.827 891.088 370.792C888.951 376.644 866.875 395.771 857.525 397.358C857.451 397.358 857.427 397.358 857.402 397.358ZM885.08 360.394L859.003 395.603C868.987 392.392 888.165 375.022 889.848 370.408C891.043 367.16 888.465 365.85 888.347 365.798C888.158 365.721 888.052 365.541 888.021 365.335C887.991 365.129 888.06 364.897 888.221 364.742C889.306 363.555 889.358 362.138 888.408 360.981C888.055 360.543 887.688 360.26 887.288 360.081C886.723 359.824 885.979 359.928 885.08 360.394Z" fill="black"/>
<path d="M838.122 375.898C837.891 375.899 837.673 375.77 837.564 375.563C837.457 375.33 837.51 375.046 837.683 374.839C840.541 371.473 847.508 360.161 849.103 357.133C849.382 356.616 849.613 356.073 849.849 355.477C850.932 352.967 852.328 349.862 856.275 350.451C857.161 350.578 857.828 351.12 858.237 351.947C859.186 353.859 858.723 357.402 857.033 361.18C854.69 366.433 855.023 367.803 856.443 368.524C858.452 369.529 864.148 365.435 865.994 364.087C868.086 362.584 871.626 359.32 873.959 357.17C874.689 356.496 875.307 355.927 875.726 355.564C877.967 353.569 881.355 350.564 884.444 353.714C885.357 354.643 885.77 355.702 885.667 356.789C885.46 358.987 883.201 360.904 881.556 362.303C881.221 362.588 880.914 362.847 880.661 363.08C878.442 365.126 870.784 371.241 867.983 372.927C867.875 372.979 867.793 373.031 867.691 373.031L838.125 375.872C838.148 375.898 838.122 375.898 838.122 375.898ZM855.18 351.719C853.076 351.723 852.204 353.353 851.09 355.915C850.826 356.536 850.565 357.131 850.283 357.675C848.816 360.444 842.905 370.072 839.619 374.448L867.579 371.764C870.357 370.053 877.767 364.119 879.846 362.202C880.127 361.943 880.434 361.684 880.794 361.399C882.243 360.181 884.226 358.472 884.377 356.868C884.446 356.144 884.15 355.472 883.497 354.775C881.602 352.839 879.682 353.877 876.604 356.597C876.185 356.959 875.592 357.529 874.862 358.203C872.501 360.379 868.933 363.668 866.759 365.223C862.686 368.152 858.187 370.978 855.81 369.792C853.091 368.426 853.757 365.452 855.866 360.768C857.333 357.456 857.818 354.223 857.066 352.673C856.83 352.182 856.472 351.898 855.992 351.821C855.665 351.744 855.411 351.719 855.18 351.719Z" fill="black"/>
<path d="M873.52 379.453C873.321 379.453 873.153 379.376 873.045 379.196C872.847 378.913 872.936 378.474 873.232 378.242C873.232 378.242 876.878 375.399 880.931 372.195C884.233 369.586 888.427 364.834 888.456 364.783C888.652 364.55 888.958 364.473 889.223 364.575C889.865 364.909 889.977 365.322 889.772 365.657C889.622 365.941 889.309 366.096 889.042 366.02C887.96 367.233 884.532 370.952 881.66 373.226C877.582 376.43 873.935 379.272 873.935 379.272C873.824 379.401 873.67 379.453 873.52 379.453Z" fill="black"/>
<path d="M1348.85 354.892C1340.21 354.903 1338.08 348.25 1337.57 345.285C1335.44 347.273 1330.48 351.51 1326.29 351.515C1324.44 351.465 1323.12 350.745 1322.11 349.43C1317.23 342.962 1331.97 324.553 1332.57 323.779C1332.82 323.495 1333.25 323.417 1333.55 323.649C1333.86 323.88 1333.9 324.293 1333.66 324.603C1329.56 329.689 1319.68 343.939 1323.22 348.604C1323.98 349.609 1324.94 350.123 1326.15 350.148C1331.05 350.142 1337.52 343.428 1337.58 343.35C1337.77 343.144 1338.06 343.066 1338.32 343.169C1338.58 343.272 1338.76 343.503 1338.75 343.761C1338.76 344.148 1339.09 353.537 1348.87 353.525C1357.02 353.515 1361.03 331.766 1361.88 323.408C1361.92 323.047 1362.25 322.763 1362.64 322.788C1363.01 322.813 1363.29 323.123 1363.25 323.509C1363.15 324.799 1359.96 354.879 1348.85 354.892Z" fill="black"/>
<path d="M1156.64 158.529C1156.3 158.529 1156.01 158.297 1155.97 157.962C1155.89 157.189 1155.54 154.43 1154.4 150.511C1154.31 150.151 1154.5 149.789 1154.88 149.66C1155.22 149.556 1155.61 149.736 1155.73 150.097C1156.84 154.016 1157.22 156.774 1157.35 157.78C1157.39 158.141 1157.11 158.502 1156.74 158.554C1156.72 158.529 1156.69 158.529 1156.64 158.529ZM1152.49 143.68C1152.23 143.68 1151.97 143.526 1151.87 143.294C1150.89 140.948 1149.76 138.655 1148.54 136.464C1148.36 136.155 1148.48 135.716 1148.81 135.536C1149.13 135.355 1149.55 135.457 1149.75 135.766C1151.02 138.008 1152.15 140.354 1153.15 142.725C1153.3 143.06 1153.13 143.473 1152.78 143.602C1152.7 143.68 1152.6 143.68 1152.49 143.68ZM1144.97 130.305C1144.76 130.305 1144.55 130.203 1144.43 130.022C1142.94 127.961 1141.32 125.977 1139.62 124.123C1139.36 123.839 1139.4 123.427 1139.68 123.168C1139.97 122.91 1140.39 122.935 1140.65 123.193C1142.38 125.073 1144.02 127.109 1145.56 129.221C1145.79 129.531 1145.7 129.943 1145.4 130.176C1145.26 130.253 1145.13 130.305 1144.97 130.305ZM1134.62 118.945C1134.47 118.945 1134.31 118.894 1134.18 118.791C1132.26 117.117 1130.23 115.521 1128.15 114.079C1127.84 113.873 1127.77 113.435 1128.02 113.151C1128.24 112.841 1128.69 112.763 1128.97 112.969C1131.08 114.463 1133.16 116.085 1135.11 117.784C1135.39 118.016 1135.4 118.454 1135.16 118.738C1135.02 118.867 1134.81 118.945 1134.62 118.945ZM1121.98 110.09C1121.88 110.09 1121.74 110.064 1121.64 110.013C1119.47 108.803 1117.14 107.646 1114.75 106.565C1114.41 106.411 1114.26 106.024 1114.43 105.689C1114.6 105.354 1115.03 105.198 1115.37 105.353C1117.81 106.433 1120.17 107.616 1122.36 108.851C1122.7 109.031 1122.79 109.444 1122.6 109.779C1122.46 109.96 1122.22 110.089 1121.98 110.09ZM1107.78 103.763C1105.17 102.915 1102.67 102.144 1100.11 101.477C1099.74 101.374 1099.55 101.014 1099.64 100.652C1099.75 100.291 1100.16 100.084 1100.5 100.161C1103.08 100.829 1105.64 101.599 1108.03 102.447C1108.4 102.576 1108.57 102.963 1108.43 103.298C1108.34 103.582 1108.07 103.763 1107.78 103.763ZM1092.63 99.7583C1090.04 99.2714 1087.45 98.862 1084.77 98.53C1084.4 98.4788 1084.15 98.1439 1084.19 97.7828C1084.23 97.4217 1084.61 97.1376 1084.97 97.1887C1087.67 97.5207 1090.29 97.956 1092.78 98.4171C1093.15 98.4941 1093.37 98.8548 1093.31 99.2159C1093.25 99.5512 1092.95 99.7579 1092.63 99.7583Z" fill="#151515"/>
<path d="M965.708 158.634C965.158 158.506 964.959 158.119 965.077 157.758C965.106 157.655 966.07 154.841 968.223 150.4C968.393 150.064 968.794 149.909 969.132 150.063C969.47 150.218 969.616 150.605 969.447 150.94C967.324 155.278 966.36 158.092 966.359 158.118C966.295 158.453 965.998 158.634 965.708 158.634ZM972.619 144.408C972.513 144.408 972.382 144.382 972.278 144.331C971.941 144.151 971.849 143.738 972.044 143.428C973.386 141.156 974.833 138.909 976.384 136.714C976.606 136.404 977.031 136.326 977.342 136.506C977.652 136.712 977.744 137.125 977.523 137.435C975.999 139.604 974.579 141.825 973.238 144.046C973.099 144.278 972.857 144.408 972.619 144.408ZM981.735 131.391C981.577 131.392 981.447 131.34 981.317 131.263C981.034 131.031 980.968 130.618 981.216 130.308C982.922 128.242 984.704 126.227 986.563 124.315C986.836 124.031 987.259 124.031 987.542 124.262C987.824 124.52 987.81 124.933 987.563 125.217C985.732 127.103 983.95 129.092 982.298 131.133C982.134 131.314 981.92 131.391 981.735 131.391ZM992.833 119.947C992.649 119.947 992.466 119.87 992.338 119.741C992.084 119.457 992.124 119.044 992.423 118.786C994.462 117.003 996.577 115.323 998.715 113.747C999.04 113.514 999.461 113.565 999.688 113.875C999.916 114.158 999.849 114.597 999.525 114.829C997.415 116.354 995.326 118.034 993.34 119.791C993.152 119.895 992.992 119.947 992.833 119.947ZM1005.74 110.513C1005.5 110.513 1005.29 110.41 1005.17 110.204C1004.97 109.894 1005.09 109.481 1005.41 109.274C1007.73 107.878 1010.12 106.585 1012.51 105.421C1012.83 105.24 1013.25 105.394 1013.42 105.73C1013.57 106.065 1013.43 106.478 1013.08 106.633C1010.74 107.771 1008.38 109.039 1006.11 110.435C1005.98 110.487 1005.85 110.512 1005.74 110.513ZM1020.1 103.502C1019.84 103.503 1019.58 103.348 1019.48 103.064C1019.36 102.729 1019.53 102.342 1019.91 102.187C1022.42 101.229 1024.98 100.374 1027.54 99.6485C1027.91 99.5448 1028.28 99.7508 1028.37 100.112C1028.47 100.473 1028.24 100.835 1027.87 100.938C1025.34 101.664 1022.8 102.493 1020.34 103.425C1020.26 103.502 1020.18 103.502 1020.1 103.502ZM1035.46 99.1229C1035.14 99.1232 1034.86 98.8913 1034.79 98.5818C1034.72 98.2206 1034.97 97.859 1035.34 97.7812C1037.95 97.2619 1040.6 96.8459 1043.28 96.5588C1043.73 96.4808 1043.98 96.7902 1044.02 97.1514C1044.06 97.5126 1043.76 97.8484 1043.39 97.9005C1040.77 98.2133 1038.14 98.6035 1035.59 99.1227C1035.53 99.1228 1035.48 99.1228 1035.46 99.1229ZM1051.26 97.2459C1050.89 97.2463 1050.61 96.9628 1050.59 96.6016C1050.58 96.2403 1050.88 95.9045 1051.28 95.8782C1052.49 95.7993 1053.71 95.7463 1054.9 95.6932C1055.27 95.6412 1055.6 95.9762 1055.59 96.3375C1055.61 96.6987 1055.28 97.0088 1054.91 97.035C1053.72 97.0881 1052.53 97.1411 1051.31 97.22C1051.28 97.2458 1051.28 97.2458 1051.26 97.2459Z" fill="#151515"/>
<path d="M1403.04 318.813C1402.91 318.814 1402.75 318.788 1402.65 318.685C1402.34 318.479 1402.3 318.042 1402.52 317.732C1404.08 315.696 1405.59 313.531 1407.04 311.314C1407.24 310.979 1407.66 310.901 1407.99 311.081C1408.3 311.287 1408.39 311.699 1408.2 312.008C1406.71 314.276 1405.18 316.467 1403.62 318.529C1403.48 318.71 1403.27 318.813 1403.04 318.813ZM1411.72 305.591C1411.62 305.591 1411.52 305.565 1411.41 305.514C1411.08 305.334 1410.96 304.922 1411.15 304.613C1412.46 302.319 1413.68 299.974 1414.78 297.68C1414.94 297.345 1415.34 297.164 1415.68 297.344C1416.01 297.498 1416.16 297.884 1415.99 298.219C1414.87 300.564 1413.64 302.935 1412.31 305.255C1412.2 305.461 1411.96 305.59 1411.72 305.591ZM1418.48 291.391C1417.91 291.237 1417.74 290.851 1417.86 290.491C1418.8 288.068 1419.66 285.595 1420.4 283.147C1420.51 282.786 1420.89 282.58 1421.25 282.657C1421.61 282.759 1421.81 283.12 1421.72 283.48C1420.99 285.954 1420.12 288.479 1419.15 290.927C1419.04 291.21 1418.77 291.391 1418.48 291.391ZM1422.97 276.422C1422.47 276.345 1422.25 276.011 1422.31 275.65C1422.84 273.1 1423.24 270.524 1423.5 268.025C1423.54 267.639 1423.91 267.406 1424.25 267.406C1424.62 267.431 1424.9 267.766 1424.86 268.126C1424.59 270.677 1424.17 273.278 1423.64 275.88C1423.58 276.189 1423.28 276.422 1422.97 276.422ZM1424.59 260.993C1424.23 260.993 1423.92 260.71 1423.93 260.349C1423.94 257.8 1423.81 255.224 1423.53 252.701C1423.49 252.34 1423.76 252.005 1424.13 251.953C1424.5 251.875 1424.83 252.158 1424.89 252.519C1425.18 255.068 1425.3 257.695 1425.29 260.296C1425.28 260.683 1424.98 260.992 1424.59 260.993ZM1422.9 245.67C1422.58 245.67 1422.33 245.465 1422.26 245.156C1421.71 242.684 1421.01 240.238 1420.17 237.844C1420.05 237.509 1420.25 237.122 1420.59 236.968C1420.96 236.838 1421.35 236.992 1421.47 237.353C1422.3 239.799 1423.03 242.296 1423.6 244.794C1423.7 245.154 1423.45 245.515 1423.08 245.618C1423.03 245.67 1422.97 245.67 1422.9 245.67ZM1417.88 231.202C1417.62 231.202 1417.39 231.073 1417.29 230.842C1416.21 228.602 1415.01 226.337 1413.69 224.15C1413.49 223.841 1413.61 223.429 1413.93 223.222C1414.25 223.041 1414.67 223.118 1414.87 223.427C1416.2 225.666 1417.44 227.931 1418.54 230.222C1418.68 230.557 1418.54 230.969 1418.19 231.124C1418.09 231.201 1417.98 231.201 1417.88 231.202ZM1409.97 218.127C1409.76 218.128 1409.55 218.025 1409.43 217.87C1407.9 215.838 1406.26 213.908 1404.52 212.081C1404.27 211.824 1404.28 211.386 1404.55 211.128C1404.82 210.87 1405.27 210.87 1405.52 211.127C1407.29 212.979 1408.97 214.961 1410.53 217.019C1410.75 217.328 1410.69 217.74 1410.37 217.972C1410.26 218.075 1410.1 218.127 1409.97 218.127ZM1399.35 207.091C1399.2 207.091 1399.04 207.04 1398.94 206.937C1397 205.368 1394.91 203.877 1392.76 202.514C1392.45 202.309 1392.36 201.897 1392.58 201.587C1392.8 201.278 1393.22 201.2 1393.53 201.38C1395.73 202.768 1397.88 204.285 1399.86 205.906C1400.14 206.137 1400.18 206.575 1399.93 206.858C1399.75 207.013 1399.56 207.091 1399.35 207.091ZM1386.32 198.916C1386.21 198.917 1386.11 198.891 1386.03 198.865C1383.77 197.786 1381.37 196.81 1378.94 195.938C1378.58 195.809 1378.41 195.423 1378.55 195.088C1378.69 194.727 1379.06 194.547 1379.43 194.675C1381.91 195.548 1384.36 196.549 1386.65 197.628C1386.98 197.782 1387.12 198.194 1386.93 198.529C1386.84 198.761 1386.58 198.916 1386.32 198.916ZM1317.18 194.853C1316.89 194.853 1316.61 194.673 1316.54 194.364C1316.45 194.004 1316.67 193.643 1317.04 193.539C1317.14 193.513 1320.02 192.686 1324.83 191.83C1325.19 191.752 1325.55 192.01 1325.59 192.37C1325.66 192.731 1325.39 193.092 1325.02 193.143C1320.26 193.999 1317.39 194.827 1317.36 194.827C1317.31 194.853 1317.23 194.853 1317.18 194.853ZM1371.69 193.783C1369.13 193.168 1366.56 192.656 1363.93 192.273C1363.57 192.222 1363.32 191.861 1363.38 191.501C1363.44 191.14 1363.84 190.908 1364.18 190.933C1366.86 191.342 1369.43 191.854 1371.89 192.469C1372.26 192.572 1372.48 192.932 1372.36 193.293C1372.3 193.576 1372.01 193.783 1371.69 193.783ZM1332.71 191.975C1332.37 191.976 1332.09 191.718 1332.05 191.384C1332.01 191.023 1332.28 190.688 1332.68 190.636C1335.3 190.324 1337.95 190.089 1340.57 189.931C1341.01 189.956 1341.26 190.188 1341.28 190.574C1341.29 190.96 1340.99 191.27 1340.63 191.296C1338.03 191.454 1335.41 191.689 1332.82 192.001C1332.77 191.975 1332.74 191.975 1332.71 191.975ZM1356.28 191.38C1353.67 191.177 1351.03 191.078 1348.42 191.081C1348.05 191.081 1347.75 190.772 1347.76 190.412C1347.77 190.051 1348.1 189.742 1348.46 189.741C1351.1 189.764 1353.76 189.864 1356.37 190.041C1356.74 190.066 1357.01 190.401 1356.98 190.761C1356.94 191.096 1356.62 191.38 1356.28 191.38Z" fill="#151515"/>
<path d="M1068.3 108.446C1062.11 108.454 1057.26 103.538 1057.46 97.4559C1057.65 91.3741 1062.85 86.4458 1069.02 86.4384C1075.21 86.431 1080.06 91.3729 1079.87 97.429C1079.67 103.511 1074.49 108.439 1068.3 108.446ZM1068.98 87.7785C1063.54 87.785 1058.99 92.1198 1058.82 97.4543C1058.65 102.789 1062.91 107.113 1068.34 107.106C1073.78 107.1 1078.33 102.765 1078.5 97.4306C1078.68 92.0961 1074.41 87.772 1068.98 87.7785Z" fill="#0F132D"/>
</svg>
