<svg width="74" height="74" viewBox="0 0 74 74" fill="none" xmlns="http://www.w3.org/2000/svg">
<path d="M30.0625 6.9375C21.1478 6.9375 13.875 14.2103 13.875 23.125C13.875 28.6981 16.7194 33.6469 21.0299 36.5676C12.7812 40.1057 6.9375 48.2919 6.9375 57.8125H11.5625C11.5625 47.5681 19.8181 39.3125 30.0625 39.3125C35.0228 39.3125 39.4582 41.3452 42.7812 44.5156L31.8686 55.4283L31.7252 56.1498L30.1342 64.3176L29.4127 67.7123L32.8097 66.9908L40.9729 65.3998L41.6967 65.2564L65.0391 41.9141C67.7216 39.2316 67.7216 34.7684 65.0391 32.0859C63.7445 30.8019 61.9988 30.0754 60.1754 30.062C58.3521 30.0486 56.5959 30.7493 55.2826 32.0142L46.1066 41.1926C44.0681 39.24 41.6925 37.673 39.0951 36.5676C41.2954 35.0822 43.0982 33.0802 44.3455 30.7367C45.5928 28.3932 46.2467 25.7797 46.25 23.125C46.25 14.2103 38.9772 6.9375 30.0625 6.9375ZM30.0625 11.5625C36.4751 11.5625 41.625 16.7124 41.625 23.125C41.625 29.5376 36.4751 34.6875 30.0625 34.6875C23.6499 34.6875 18.5 29.5376 18.5 23.125C18.5 16.7124 23.6499 11.5625 30.0625 11.5625ZM60.125 34.6875C60.7124 34.6875 61.3275 34.8771 61.7877 35.3373C62.006 35.548 62.1797 35.8006 62.2983 36.0799C62.4169 36.3592 62.478 36.6596 62.478 36.963C62.478 37.2664 62.4169 37.5668 62.2983 37.8461C62.1797 38.1254 62.006 38.378 61.7877 38.5887L39.3842 60.9922L35.2656 61.8594L36.1328 57.7408L58.5363 35.3373C58.9965 34.8771 59.5376 34.6875 60.125 34.6875Z" fill="#A93B9E"/>
</svg>
