<svg width="75" height="75" viewBox="0 0 75 75" fill="none" xmlns="http://www.w3.org/2000/svg">
<path d="M50.726 9.82992C51.9015 8.65822 53.4956 8 55.1578 8C56.82 8 58.4141 8.65822 59.5896 9.82992L64.5605 14.7862C65.7356 15.9582 66.3958 17.5476 66.3958 19.2049C66.3958 20.8622 65.7356 22.4516 64.5605 23.6237L39.4867 48.6237C38.3114 49.7959 36.7173 50.4546 35.0549 50.4549H30.0841C28.4216 50.4549 26.8272 49.7964 25.6516 48.6243C24.476 47.4522 23.8156 45.8625 23.8156 44.2049V39.2487C23.816 37.5912 24.4766 36.0017 25.6523 34.8299L50.726 9.82992ZM50.1869 19.2049L55.1578 24.1612L60.1287 19.2049L62.3446 21.4143L55.1578 14.2487L50.1869 19.2049ZM50.726 28.5799L45.7551 23.6237L30.0841 39.2487V44.2049H35.0549L50.726 28.5799ZM8.14453 22.3299C8.14453 19.8435 9.13517 17.4589 10.8985 15.7008C12.6618 13.9426 15.0534 12.9549 17.5472 12.9549H26.9498C27.7811 12.9549 28.5783 13.2842 29.1661 13.8702C29.7538 14.4563 30.0841 15.2511 30.0841 16.0799C30.0841 16.9087 29.7538 17.7036 29.1661 18.2896C28.5783 18.8757 27.7811 19.2049 26.9498 19.2049H17.5472C16.7159 19.2049 15.9187 19.5342 15.331 20.1202C14.7432 20.7063 14.413 21.5011 14.413 22.3299V56.7049C14.413 57.5337 14.7432 58.3286 15.331 58.9146C15.9187 59.5007 16.7159 59.8299 17.5472 59.8299H52.0236C52.8548 59.8299 53.652 59.5007 54.2398 58.9146C54.8276 58.3286 55.1578 57.5337 55.1578 56.7049V47.3299C55.1578 46.5011 55.488 45.7063 56.0758 45.1202C56.6636 44.5342 57.4608 44.2049 58.292 44.2049C59.1233 44.2049 59.9205 44.5342 60.5083 45.1202C61.096 45.7063 61.4262 46.5011 61.4262 47.3299V56.7049C61.4262 59.1913 60.4356 61.5759 58.6723 63.334C56.9089 65.0922 54.5173 66.0799 52.0236 66.0799H17.5472C15.0534 66.0799 12.6618 65.0922 10.8985 63.334C9.13517 61.5759 8.14453 59.1913 8.14453 56.7049V22.3299Z" fill="#A93B9E"/>
</svg>
