<svg width="237" height="49" viewBox="0 0 237 49" fill="none" xmlns="http://www.w3.org/2000/svg">
<path d="M128.841 38.9455C126.64 38.9455 124.659 38.3673 122.899 37.2108C121.168 36.0543 119.803 34.4556 118.806 32.4147C117.808 30.3398 117.309 27.9588 117.309 25.2717C117.309 22.5505 117.808 20.1695 118.806 18.1286C119.803 16.0878 121.168 14.5061 122.899 13.3836C124.659 12.2271 126.64 11.6489 128.841 11.6489C130.865 11.6489 132.67 12.1761 134.254 13.2306C135.868 14.285 137.144 15.8327 138.083 17.8735C139.051 19.8804 139.535 22.3464 139.535 25.2717C139.535 28.1629 139.066 30.629 138.127 32.6698C137.188 34.7107 135.912 36.2754 134.298 37.3638C132.714 38.4183 130.894 38.9455 128.841 38.9455ZM129.061 35.7312C130.704 35.7312 132.171 35.306 133.462 34.4556C134.782 33.5712 135.809 32.3467 136.543 30.782C137.305 29.1834 137.687 27.3466 137.687 25.2717C137.687 23.1628 137.305 21.326 136.543 19.7613C135.809 18.1967 134.782 16.9892 133.462 16.1388C132.171 15.2544 130.704 14.8122 129.061 14.8122C127.447 14.8122 125.994 15.2544 124.703 16.1388C123.412 16.9892 122.385 18.1967 121.623 19.7613C120.86 21.326 120.478 23.1628 120.478 25.2717C120.478 27.3466 120.86 29.1834 121.623 30.782C122.385 32.3467 123.412 33.5712 124.703 34.4556C125.994 35.306 127.447 35.7312 129.061 35.7312ZM137.775 38.6904V30.629L138.083 25.2207L137.643 19.8124V0.832275H140.768V38.6904H137.775Z" fill="#444444"/>
<path d="M147.27 38.6904V11.904H150.395V38.6904H147.27ZM148.854 5.98547C148.209 5.98547 147.666 5.73036 147.226 5.22015C146.786 4.70993 146.566 4.09767 146.566 3.38336C146.566 2.66906 146.786 2.0738 147.226 1.5976C147.666 1.08739 148.209 0.832275 148.854 0.832275C149.5 0.832275 150.043 1.07038 150.483 1.54658C150.923 2.02278 151.143 2.61804 151.143 3.33234C151.143 4.08066 150.923 4.70993 150.483 5.22015C150.072 5.73036 149.529 5.98547 148.854 5.98547Z" fill="#444444"/>
<path d="M166.747 48.8437C164.635 48.8437 162.61 48.4866 160.674 47.7723C158.737 47.058 157.168 46.0375 155.965 44.711L157.549 41.9558C158.635 43.0783 159.97 43.9627 161.554 44.6089C163.168 45.2892 164.87 45.6294 166.659 45.6294C169.594 45.6294 171.75 44.83 173.129 43.2313C174.508 41.6667 175.198 39.2176 175.198 35.8842V29.2004L175.638 24.6084L175.33 20.0165V11.904H178.323V35.425C178.323 40.051 177.34 43.4354 175.374 45.5783C173.437 47.7553 170.562 48.8437 166.747 48.8437ZM166.175 37.67C163.975 37.67 161.994 37.1257 160.234 36.0373C158.473 34.9148 157.08 33.3671 156.053 31.3943C155.055 29.4215 154.556 27.1595 154.556 24.6084C154.556 22.0573 155.055 19.8124 156.053 17.8735C157.08 15.9007 158.473 14.37 160.234 13.2816C161.994 12.1931 163.975 11.6489 166.175 11.6489C168.229 11.6489 170.078 12.1421 171.721 13.1285C173.364 14.1149 174.67 15.5776 175.638 17.5164C176.606 19.4552 177.09 21.8192 177.09 24.6084C177.09 27.3976 176.606 29.7616 175.638 31.7004C174.67 33.6393 173.364 35.1189 171.721 36.1393C170.078 37.1598 168.229 37.67 166.175 37.67ZM166.483 34.4556C168.185 34.4556 169.696 34.0474 171.017 33.2311C172.337 32.3807 173.379 31.2242 174.141 29.7616C174.904 28.265 175.286 26.5472 175.286 24.6084C175.286 22.6696 174.904 20.9689 174.141 19.5062C173.379 18.0436 172.337 16.9041 171.017 16.0878C169.696 15.2374 168.185 14.8122 166.483 14.8122C164.811 14.8122 163.3 15.2374 161.95 16.0878C160.63 16.9041 159.588 18.0436 158.825 19.5062C158.092 20.9689 157.725 22.6696 157.725 24.6084C157.725 26.5472 158.092 28.265 158.825 29.7616C159.588 31.2242 160.63 32.3807 161.95 33.2311C163.3 34.0474 164.811 34.4556 166.483 34.4556Z" fill="#444444"/>
<path d="M184.817 38.6904V11.904H187.942V38.6904H184.817ZM186.402 5.98547C185.756 5.98547 185.214 5.73036 184.773 5.22015C184.333 4.70993 184.113 4.09767 184.113 3.38336C184.113 2.66906 184.333 2.0738 184.773 1.5976C185.214 1.08739 185.756 0.832275 186.402 0.832275C187.047 0.832275 187.59 1.07038 188.03 1.54658C188.47 2.02278 188.69 2.61804 188.69 3.33234C188.69 4.08066 188.47 4.70993 188.03 5.22015C187.619 5.73036 187.077 5.98547 186.402 5.98547Z" fill="#444444"/>
<path d="M201.742 38.9455C199.571 38.9455 197.899 38.2652 196.725 36.9046C195.551 35.5441 194.965 33.6223 194.965 31.1392V5.98547H198.089V30.9351C198.089 32.4998 198.427 33.7073 199.102 34.5576C199.806 35.408 200.803 35.8332 202.094 35.8332C203.474 35.8332 204.618 35.374 205.527 34.4556L206.628 37.0577C206.012 37.704 205.263 38.1802 204.383 38.4863C203.532 38.7925 202.652 38.9455 201.742 38.9455ZM190.827 14.9143V11.904H205.131V14.9143H190.827Z" fill="#444444"/>
<path d="M224.596 38.6904V32.7719L224.464 31.8025V21.9043C224.464 19.6253 223.906 17.8735 222.791 16.649C221.705 15.4245 220.077 14.8122 217.906 14.8122C216.409 14.8122 214.986 15.1014 213.637 15.6796C212.287 16.2579 211.143 17.0232 210.204 17.9756L208.795 15.2714C209.969 14.1149 211.377 13.2306 213.02 12.6183C214.664 11.972 216.395 11.6489 218.214 11.6489C221.207 11.6489 223.51 12.5163 225.124 14.251C226.767 15.9517 227.588 18.5538 227.588 22.0573V38.6904H224.596ZM216.629 38.9455C214.898 38.9455 213.387 38.6224 212.096 37.9761C210.834 37.2958 209.866 36.3774 209.191 35.2209C208.517 34.0304 208.179 32.6698 208.179 31.1392C208.179 29.7446 208.458 28.4861 209.015 27.3636C209.602 26.2071 210.541 25.2887 211.832 24.6084C213.152 23.8941 214.913 23.537 217.114 23.537H225.08V26.2411H217.202C214.972 26.2411 213.417 26.7003 212.536 27.6187C211.685 28.5371 211.26 29.6766 211.26 31.0371C211.26 32.5678 211.773 33.7923 212.8 34.7107C213.827 35.6291 215.265 36.0883 217.114 36.0883C218.874 36.0883 220.385 35.6291 221.647 34.7107C222.938 33.7583 223.877 32.3977 224.464 30.629L225.168 33.129C224.581 34.8978 223.554 36.3094 222.087 37.3638C220.649 38.4183 218.83 38.9455 216.629 38.9455Z" fill="#444444"/>
<path d="M233.875 38.6904V0.832275H237V38.6904H233.875Z" fill="#444444"/>
<path d="M25.845 12.7687C24.8833 13.4956 24.0827 14.3543 23.4435 15.3425C22.9239 14.3379 22.2618 13.4986 21.4528 12.831C19.8588 11.482 17.9588 10.8096 15.772 10.8096C13.7937 10.8096 12.0434 11.3204 10.5355 12.3511C9.051 13.3658 7.84698 14.5618 7.19127 16.6722C7.1683 16.7462 7.1475 16.8181 7.1288 16.8882C6.94881 15.9597 7.13133 14.3481 8.50744 11.6074C9.37767 9.87414 9.27337 8.43971 8.48258 7.52031C7.70686 6.61842 6.37714 6.3429 5.07614 6.68659C2.41816 7.38874 -0.191361 10.6175 0.867438 16.8464C1.90475 22.9488 2.68274 28.3523 3.20138 32.2301C3.46069 34.169 3.65514 35.7262 3.78474 36.7985C3.84954 37.3346 3.89812 37.7495 3.93049 38.0302C3.94667 38.1705 3.9588 38.2773 3.96688 38.349L3.97595 38.4299L3.9782 38.4502L3.97876 38.4552L3.9789 38.4564L3.97893 38.4567L4.35168 38.4157L3.97894 38.4568L4.01575 38.7907H4.35168H8.33842H8.71342V38.4157V24.5202C8.71342 22.5845 8.98611 20.9916 9.51494 19.7277C10.046 18.4584 10.7796 17.5205 11.7057 16.8899C12.6351 16.257 13.7093 15.9369 14.9415 15.9369C16.6649 15.9369 17.9437 16.5537 18.8333 17.7685L18.8333 17.7686L18.8363 17.7726C19.763 19.003 20.2559 20.8761 20.2559 23.4513V38.4157V38.7907H20.6309H24.6176H24.9926V38.4157V24.5202C24.9926 22.5842 25.2515 20.9901 25.7539 19.7246C26.2849 18.4569 27.018 17.52 27.9433 16.8899C28.8715 16.2579 29.959 15.9369 31.2207 15.9369C32.9142 15.9369 34.1965 16.5523 35.1155 17.7726C36.0422 19.003 36.5351 20.8761 36.5351 23.4513V38.4157V38.7907H36.9101H40.8968H41.2718V38.4157V22.8914C41.2718 20.2125 40.8802 17.968 40.0773 16.1745C39.3052 14.3879 38.2081 13.0342 36.7767 12.1391C35.3542 11.2496 33.7195 10.8096 31.8851 10.8096C29.5942 10.8096 27.5756 11.4607 25.845 12.7687Z" fill="#CE8DCB" stroke="#11194E" stroke-width="0.75"/>
<path d="M45.5105 40.0538L45.5131 40.055C47.1049 40.81 48.9307 41.1821 50.9815 41.1821C52.9552 41.1821 54.7434 40.7471 56.3372 39.8702C56.5434 39.7567 56.7469 39.65 56.9479 39.5446C57.4629 39.2746 57.9613 39.0132 58.4463 38.6693C59.1389 38.1782 59.8162 37.5155 60.589 36.3943C60.6811 36.2607 60.7613 36.131 60.829 36.0053C60.9294 36.3021 60.946 36.6783 60.8037 37.1634C60.5815 37.9206 59.9702 38.9406 58.6731 40.2849C57.3136 41.6938 56.804 43.0093 56.9267 44.1455C57.0497 45.284 57.7961 46.1373 58.7193 46.6404C59.6395 47.1418 60.778 47.322 61.7769 47.0903C62.7898 46.8554 63.675 46.1885 63.9935 45.0068C64.1427 44.4534 64.2373 43.6055 64.2948 42.571C64.3529 41.5286 64.3745 40.2703 64.3693 38.8816C64.3589 36.104 64.2411 32.7894 64.089 29.6071C63.9368 26.4241 63.75 23.3698 63.6013 21.1116C63.527 19.9824 63.4622 19.052 63.4159 18.4038C63.3928 18.0797 63.3743 17.8262 63.3616 17.6536L63.347 17.4568L63.3432 17.4063L63.3423 17.3935L63.342 17.3903L63.3419 17.3895C63.3419 17.3893 63.3419 17.3892 62.968 17.4175L63.3419 17.3892L63.3157 17.0425H62.968H58.7218H58.3468V17.4175V29.3741C58.3468 30.9578 58.0604 32.2927 57.5036 33.392C56.9475 34.4612 56.1598 35.2785 55.1362 35.8524C54.1098 36.399 52.8911 36.6793 51.468 36.6793C49.537 36.6793 48.081 36.1355 47.0482 35.0908C46.0501 34.0517 45.518 32.4605 45.518 30.2469V17.4175V17.0425H45.143H40.8969H40.5219V17.4175V30.7269C40.5219 33.0396 40.9424 34.9968 41.8061 36.5794L41.8061 36.5794L41.8104 36.587C42.7021 38.1341 43.9371 39.2928 45.5105 40.0538Z" fill="#CE8DCB" stroke="#11194E" stroke-width="0.75"/>
<path d="M69.0715 40.5668L69.0735 40.5672C70.9764 40.9498 72.9174 40.988 74.8944 40.6835C77.0153 40.3569 78.8052 39.7265 80.2508 38.7799L80.2508 38.7799L80.2569 38.7758C81.6921 37.795 82.7466 36.5809 83.4058 35.1326C84.0682 33.6772 84.254 32.0527 83.9799 30.2729C83.7262 28.6258 83.2333 27.3105 82.4735 26.3607C81.761 25.4293 80.8917 24.7445 79.867 24.3163C78.8993 23.8954 77.8492 23.6221 76.719 23.4943C75.6026 23.3332 74.4966 23.2441 73.4009 23.2272C72.3275 23.1754 71.3385 23.0753 70.4332 22.9274C69.5851 22.7798 68.8749 22.5123 68.2933 22.1335C67.7872 21.7515 67.4472 21.143 67.3096 20.2499C67.1508 19.2191 67.4252 18.3331 68.1463 17.5601L68.1464 17.5602L68.1524 17.5535C68.8625 16.7548 70.0824 16.1887 71.8893 15.9104C72.9974 15.7398 74.131 15.725 75.2912 15.8671C75.3179 15.8703 75.4003 15.9003 75.5486 16.0393C75.6881 16.1701 75.8429 16.3558 76.0181 16.5843C76.1058 16.6987 76.1987 16.8241 76.2957 16.9551C76.5696 17.3251 76.8765 17.7398 77.1948 18.0769C77.6172 18.5243 78.1688 18.9589 78.8285 18.9074C79.5009 18.8549 80.0933 18.3173 80.6456 17.3296C81.7547 15.3461 81.7457 14.0266 81.3477 13.1711C81.1527 12.7517 80.8766 12.474 80.6485 12.3011C80.5345 12.2148 80.4316 12.1539 80.3549 12.1137C80.3165 12.0935 80.2843 12.0785 80.2603 12.0678C80.257 12.0664 80.2538 12.065 80.2508 12.0637C79.0762 11.3689 77.645 10.9333 75.9698 10.744C74.3122 10.5139 72.7021 10.518 71.1408 10.7585C69.104 11.0722 67.3734 11.7131 65.962 12.6932C64.5742 13.6332 63.5636 14.845 62.9412 16.3258C62.3177 17.8089 62.1499 19.4448 62.4237 21.2224C62.6827 22.9041 63.1656 24.2535 63.8966 25.2408L63.8966 25.2408L63.9 25.2453C64.6124 26.1775 65.483 26.8794 66.5101 27.3436L66.51 27.3438L66.5201 27.348C67.5134 27.7625 68.5778 28.0511 69.7119 28.215L69.7119 28.2151L69.7235 28.2165C70.8309 28.3412 71.933 28.4299 73.0296 28.4826L73.0296 28.4828L73.0419 28.483C74.113 28.4993 75.0838 28.5666 75.9553 28.6839L75.9587 28.6843C76.8318 28.7939 77.532 29.0453 78.0761 29.423C78.5778 29.7713 78.9074 30.3262 79.0335 31.1447C79.2052 32.2598 78.9378 33.1562 78.2513 33.879L78.2513 33.8789L78.2471 33.8835C77.59 34.5985 76.3416 35.1384 74.4015 35.4372C72.9247 35.6647 71.4325 35.6107 69.9224 35.2734C69.7125 35.2266 69.5147 35.022 69.276 34.5827C69.1866 34.4181 69.102 34.2418 69.0114 34.053C68.9868 34.0017 68.9617 33.9494 68.936 33.8962C68.8187 33.6537 68.6899 33.3969 68.5408 33.1597C68.2453 32.6898 67.8285 32.2314 67.1724 32.1273C66.5314 32.0256 65.7758 32.2814 64.8442 32.9348C63.8936 33.6015 63.357 34.3049 63.1212 35.0091C62.8847 35.7154 62.9657 36.3782 63.1682 36.9336C63.369 37.4845 63.6916 37.9382 63.9567 38.2498C64.0904 38.4068 64.2122 38.5309 64.3015 38.6166C64.3463 38.6595 64.3831 38.693 64.4094 38.7163C64.4225 38.728 64.4331 38.7371 64.4408 38.7437L64.45 38.7515L64.4529 38.7539L64.4539 38.7548L64.4543 38.7551C64.4545 38.7553 64.4547 38.7554 64.6937 38.4664L64.4547 38.7554L64.4681 38.7665L64.4824 38.7763C65.6752 39.5895 67.2102 40.1821 69.0715 40.5668Z" fill="#CE8DCB" stroke="#11194E" stroke-width="0.75"/>
<path d="M100.728 41.8442C102.359 41.0775 103.719 39.9613 104.805 38.4997L104.827 38.4702L104.843 38.437L104.504 38.2761C104.843 38.437 104.843 38.4368 104.843 38.4367L104.843 38.4362L104.844 38.4352L104.845 38.432L104.85 38.4217C104.854 38.4131 104.86 38.4011 104.866 38.3858C104.88 38.3552 104.898 38.3116 104.92 38.2567C104.964 38.1471 105.022 37.9915 105.079 37.8041C105.192 37.4328 105.307 36.919 105.295 36.3817C105.283 35.8428 105.141 35.2518 104.71 34.7694C104.277 34.2846 103.598 33.9606 102.615 33.8661C101.652 33.7736 100.958 33.903 100.462 34.2185C99.9576 34.5388 99.7187 35.0112 99.5843 35.4634C99.5176 35.6877 99.4743 35.9149 99.4383 36.122C99.4293 36.1736 99.4209 36.2233 99.4127 36.2714C99.3869 36.4239 99.3637 36.5607 99.3346 36.6904C99.2544 37.0469 99.1621 37.178 99.0506 37.2307L99.0506 37.2307L99.0472 37.2323C97.9955 37.7431 96.813 38.002 95.4926 38.002C93.8907 38.002 92.4863 37.63 91.2678 36.8953C90.0467 36.1591 89.0879 35.1357 88.3895 33.8162C87.7299 32.4831 87.3911 30.971 87.381 29.2722C87.6525 29.9537 88.2493 30.5174 89.1807 30.5481C90.2403 30.5831 94.1881 30.5656 97.8575 30.5397C99.6952 30.5266 101.467 30.5115 102.78 30.4995C103.436 30.4936 103.977 30.4884 104.355 30.4848L104.792 30.4805L104.906 30.4793L104.936 30.479L104.943 30.479L104.945 30.4789L104.945 30.4789C104.946 30.4789 104.946 30.4789 104.942 30.1286L104.946 30.4791L104.955 30.4787L104.942 30.104C104.955 30.4787 104.955 30.4787 104.955 30.4787L104.955 30.4787L104.956 30.4787L104.957 30.4787L104.96 30.4786L104.97 30.4781L105.006 30.4763C105.036 30.4747 105.078 30.472 105.129 30.468C105.23 30.4599 105.367 30.446 105.507 30.4222C105.642 30.3994 105.804 30.3637 105.941 30.3039C106.009 30.2743 106.093 30.2291 106.166 30.1584C106.239 30.0877 106.314 29.9756 106.322 29.826C106.351 29.5531 106.367 29.3081 106.367 29.0927C106.367 26.2908 105.863 23.8288 104.843 21.717C103.855 19.5771 102.471 17.9067 100.687 16.7209C98.8997 15.5327 96.8429 14.9426 94.5301 14.9426C92.2434 14.9426 90.1735 15.5511 88.3308 16.7704C86.5203 17.954 85.0925 19.6048 84.0452 21.7102L84.0452 21.7102L84.0433 21.714C83.0234 23.8247 82.5186 26.2367 82.5186 28.9413C82.5186 31.6475 83.0385 34.0609 84.0889 36.1725L84.0889 36.1725L84.0908 36.1763C85.17 38.2854 86.6733 39.9517 88.5993 41.1666L88.6015 41.168C90.563 42.3862 92.8204 42.9905 95.3613 42.9905C97.3348 42.9905 99.126 42.6109 100.728 41.8442ZM100.728 41.8442C100.727 41.8444 100.727 41.8446 100.727 41.8448L100.567 41.5054L100.729 41.8436C100.729 41.8438 100.728 41.844 100.728 41.8442ZM101.551 26.6333C100.385 26.5982 98.8655 26.5532 97.2859 26.5082C93.9318 26.4126 90.2936 26.3167 89.1931 26.3167C88.5387 26.3167 88.0268 26.5766 87.6865 26.9864C87.5768 27.1185 87.4869 27.2636 87.4161 27.4168C87.5135 26.1112 87.8122 24.9424 88.3066 23.9055L88.3067 23.9055L88.3082 23.9023C88.9238 22.5789 89.7696 21.5768 90.8412 20.8796L90.8412 20.8797L90.8476 20.8753C91.919 20.1466 93.1424 19.7797 94.5301 19.7797C95.9488 19.7797 97.1699 20.1474 98.2089 20.8728L98.2088 20.8729L98.2191 20.8796C99.293 21.5783 100.139 22.5655 100.754 23.8551C101.157 24.7 101.423 25.6253 101.551 26.6333Z" fill="#CE8DCB" stroke="#11194E" stroke-width="0.75"/>
</svg>
